<?xml version="1.0" encoding="UTF-8"?>
<!-- Generator: Adobe Illustrator 19.0.0, SVG Export Plug-In . SVG Version: 6.00 Build 0)  -->
<svg version="1.1" id="Capa_1" xmlns="http://www.w3.org/2000/svg" xmlns:xlink="http://www.w3.org/1999/xlink" x="0px" y="0px" viewBox="-457.8 242.9 307.3 75" style="enable-background:new -457.8 242.9 307.3 75;" xml:space="preserve">
<style type="text/css">
	.st0{fill:#DE1B2F;}
</style>
<path class="st0" d="M-174.6,242.9c-3.8,0-7.5,0.9-10.7,2.5c-2.5,1.3-4.7,2.9-6.6,4.8c-2.4,2.5-4.3,5.2-5.5,8.9  c-4.7,14.4,6.7,19.3,11.7,19.3c1.5,0,6-0.3,9.8-3.5c2.2-1.9,4.5-4.5,5.5-9h0c-8.3,2.8,0,0-8.3,2.8c0,0,0,0.1,0,0.1c0,3.9-3.1,7-7,7  c-3.8,0-7-3.1-7-7c0-3.9,3.1-7,7-7c3,0,5.5,1.9,6.5,4.5c4.7-1.3,16.5-4.8,23.6-14.3c-3.2-4.2-7.8-7.2-13-8.5  C-170.7,243.1-172.5,242.9-174.6,242.9L-174.6,242.9z M-267.4,242.9l-12.7,15l4.5,4l18.6-11.5l0.1-1.1L-267.4,242.9z M-399.4,245.6  l-0.6,4.2l1.8,0.5c3.3,0.8,4.4,1.7,4.4,5.9v48.3c0,6.4-0.3,6.9-3.7,7.5l-2,0.3v4.4h26v-4.4l-1.9-0.3c-3.4-0.6-3.7-1.4-3.7-7.6v-58.8  L-399.4,245.6z M-422.3,246.4c-23.8,0-35.5,16.2-35.5,37.2c0,18.4,9.2,34.3,33.6,34.3c7.4,0,15.1-1.5,20.7-4.8l0.9-16.1h-7.3  l-1.8,6.2c-1.4,5.3-4,7-11,7c-12,0-18.5-9.4-18.5-28.3c0-17.5,7.2-28,18.9-28c6.3,0,9.6,2.8,10.3,7.5l1.4,7.5l6.9,0.7l1-17.8  C-408.2,248.4-416.2,246.4-422.3,246.4z M-158.5,264.6c-2.1,0-3.6,0.1-4.2,0.1c-3,15.9-20.8,25.3-14.9,26.2c1.1,0.2,2.3,0.2,2.9,0.2  c3,0,5.7-0.5,8.6-1.6c6.5-2.4,12.7-8.1,14.8-16.7c0.5-2,0.7-3.6,0.7-5.8c0-0.5,0-1,0-1.6h0C-153.6,264.9-156.4,264.6-158.5,264.6  L-158.5,264.6z M-348.7,265.5c-10.4,0-18.1,4.7-21.2,6.8l3,6.1c4.7-2.2,9.5-3.9,14.4-3.9c5.6,0,7.5,3.1,7.5,7.9v6.1  c-11.6,0.4-27.1,0.6-27.1,15.4c0,5.7,2.1,13.8,13.7,13.8c7.8,0,11.6-3.4,14.1-6.7c0.7,3.3,2.7,6.7,10.5,6.7c2.8,0,5.6-0.5,8.6-1.4  v-4.3l-1.4-0.2c-3.2-0.4-3.8-1-3.8-5v-22.5C-330.3,269.6-336,265.5-348.7,265.5L-348.7,265.5z M-290.5,265.5c-5.3,0-9,3.7-12.1,9  l-1.2-7.1l-1-0.6h-17.7l-0.3,4.6l2,0.4c3.3,0.6,4,2.5,4,6.3v26.2c0,6.4-0.2,6.9-3.6,7.5l-1.8,0.3v4.5h27.5v-4.5l-3.4-0.4  c-3.5-0.4-4-1.2-4-7.4v-25c3.1-1.4,7.7-0.3,14.7,3.9h1.2l1.1-16.9C-286.8,265.9-288.6,265.5-290.5,265.5z M-217.7,265.5  c-6.8,0-12.1,3.3-16.4,7.7l-0.7-5.7l-1-0.6h-18.1l-0.3,4.6l1.9,0.4c3.4,0.7,4,2.2,4,6.4v26.1c0,6.4-0.4,7-3.9,7.6l-1.5,0.3v4.4h24.6  v-4.4l-1.1-0.2c-3.5-0.7-3.4-1.5-3.4-7.8v-26.7c1.1-0.7,4.1-1.8,7.9-1.8c4.2,0,6.4,1.6,6.4,7.1v22c0,5.6-0.2,6.7-3.1,7.2l-1.2,0.2  v4.4h24.6v-4.4l-1.8-0.3c-3.5-0.4-3.8-1.5-3.8-7.6v-22.9C-204.6,270.3-209.6,265.5-217.7,265.5z M-282.3,266.9l-0.3,4.6l1.4,0.3  c3.3,0.8,4.3,2,4.3,6.5v26.2c0,6.4-0.8,6.9-4.3,7.5l-2,0.3v4.4h26.8v-4.4l-1.9-0.3c-3.4-0.6-3.9-1.4-3.9-7.6h0v-36.9l-1-0.6H-282.3z   M-345,294.5v8.6c0,3.6-2.7,5.3-6.4,5.3c-3.8,0-6.1-2.3-6.1-6.7C-357.6,296-353.1,294.2-345,294.5z"/>
</svg>