<?xml version="1.0" encoding="UTF-8"?>
<!-- Generator: Adobe Illustrator 19.0.0, SVG Export Plug-In . SVG Version: 6.00 Build 0)  -->
<svg version="1.1" id="Capa_1" xmlns="http://www.w3.org/2000/svg" xmlns:xlink="http://www.w3.org/1999/xlink" x="0px" y="0px" viewBox="582 256 181 50" style="enable-background:new 582 256 181 50;" xml:space="preserve">
<style type="text/css">
	.st0{fill:#0088CD;}
</style>
<title>ambito_logo_2020</title>
<path class="st0" d="M613.7,268.3h10.6v4.3h0.1c1.6-3.3,4.8-5.3,8.8-5.3c3.2,0,7.4,0.6,9,5.6c2.6-4.3,5-5.6,9.1-5.6  c6.3,0,9.6,3.1,9.6,10.2V305h-11V280c0-2.7-1.2-4.2-3.2-4.2c-2.1,0-3.9,1.6-3.9,5.2v24h-11V280c0-2.7-1.2-4.2-3.2-4.2  c-2.1,0-3.9,1.6-3.9,5.2v24h-11V268.3z"/>
<path class="st0" d="M664.5,256.5h11v15.8h0.1c1.8-3.9,5.2-5,8.2-5c9,0,10.7,8.2,10.7,19.6c0,13.7-3.9,19-11.3,19  c-4.9,0-7.1-2.9-7.9-5.4h-0.1v4.5h-10.6V256.5z M679.2,298c4.1,0,4.3-5.6,4.3-11.5c0-6.7-0.2-11.1-4.2-11.1c-3.7,0-4,5-4,11.6  C675.3,294,676,298,679.2,298z"/>
<path class="st0" d="M697.9,256h11v8.4h-11V256z M697.9,268.3h11V305h-11V268.3z"/>
<path class="st0" d="M715.3,275.9h-4.6v-7.6h4.6v-10.8h11v10.8h5.1v7.6h-5.1v18.5c0,2.6,1,3.4,3.5,3.4c0.5,0,1-0.1,1.6-0.1v7.3  c-2.1,0.3-4.2,0.4-6.3,0.4c-7.6,0-9.8-1.4-9.8-9.9V275.9z"/>
<path class="st0" d="M732.7,286.8c0-11,2.4-19.4,15.1-19.4c13.4,0,15.1,8.2,15.1,19.2c0,11-2.4,19.4-15.1,19.4  C734.4,306,732.7,297.8,732.7,286.8z M747.9,274.5c-3.3,0-4.2,3.2-4.2,12.1c0,9,1,12.2,4.2,12.2c3.4,0,4.1-3.1,4.1-12.1  C752,277.6,751.3,274.5,747.9,274.5z"/>
<path class="st0" d="M610.5,297.1v-18.9c0-7-3.2-10.2-10.4-10.8l6.9-10.1h-10.6l-3.8,10.3c-2.2,0.3-3.9,1-5.5,2.1  c-2.6,1.8-4.1,4.8-4.1,9.9h9.8c0.1-3.2,1-5,4-5c2.4,0,3.5,1.4,3.5,3.7c0,2.8-0.6,3.3-3.9,4.2c-3.1,0.8-7.1,1.5-9.9,3  c-2.7,1.5-4.5,5.1-4.5,9.4c0,8,3.6,11.2,9.8,11.2c3.7,0,7.1-1.9,8.6-5.2h0.1c0.1,1.4,0.2,2.9,0.6,4.2h10.6  C610.5,303.4,610.5,299.9,610.5,297.1z M600.2,293.3c0,3.7-2.1,5-4.4,5c-2,0-3.2-1.8-3.2-4.7c0-2,0.5-3.2,1.7-4.1  c1-0.8,2.5-0.9,6-2.7C600.3,288.4,600.2,290.3,600.2,293.3z"/>
</svg>