<svg width="73" height="17" viewBox="0 0 73 17" fill="none" xmlns="http://www.w3.org/2000/svg">
<rect width="72.5385" height="17" fill="white"/>
<path d="M23.5461 10.331H19.2616L18.2993 13H16.9086L20.8138 2.77344H21.9938L25.906 13H24.5224L23.5461 10.331ZM19.6689 9.22123H23.1457L21.4038 4.43806L19.6689 9.22123ZM28.9003 11.8973H33.7467V13H27.5447V2.77344H28.9003V11.8973ZM42.3669 2.77344V9.72694C42.3622 10.6915 42.0579 11.4805 41.4538 12.0939C40.8545 12.7073 40.0397 13.0515 39.0096 13.1264L38.6514 13.1405C37.5323 13.1405 36.6402 12.8385 35.9753 12.2344C35.3104 11.6304 34.9733 10.7992 34.9639 9.74099V2.77344H36.2984V9.69884C36.2984 10.4387 36.5021 11.0146 36.9095 11.4267C37.3169 11.8341 37.8975 12.0377 38.6514 12.0377C39.4146 12.0377 39.9976 11.8341 40.4003 11.4267C40.8077 11.0193 41.0113 10.4457 41.0113 9.70587V2.77344H42.3669ZM46.499 2.77344L49.8423 11.1176L53.1856 2.77344H54.9345V13H53.586V9.01754L53.7124 4.71901L50.3551 13H49.3226L45.9722 4.74008L46.1057 9.01754V13H44.7571V2.77344H46.499ZM65.4372 13H64.0816L58.9332 5.11937V13H57.5776V2.77344H58.9332L64.0956 10.6892V2.77344H65.4372V13ZM69.5412 13H68.1926V2.77344H69.5412V13Z" fill="#1976D2"/>
<g clip-path="url(#clip0_18265_137315)">
<path d="M10.6739 0H8.2854L0 14.0257H2.38849L10.6739 0Z" fill="#1976D2"/>
<path d="M14.8654 14.0259L10.7326 5.21777L9.38473 7.49929L11.3768 11.7444H6.8674L5.52944 14.0166L5.51953 14.0259H14.8654Z" fill="#1976D2"/>
<path d="M2.03171 3.19837H4.0535L4.83645 1.87061H0L2.15064 6.43363L2.93359 5.10587L2.03171 3.19837Z" fill="#1976D2"/>
</g>
<defs>
<clipPath id="clip0_18265_137315">
<rect width="14.8662" height="14.0257" fill="white"/>
</clipPath>
</defs>
</svg>
