<svg width="415" height="424" viewBox="0 0 415 424" fill="none" xmlns="http://www.w3.org/2000/svg">
<path d="M286.43 85.4111L224 64L196.436 144.406L258.866 165.818L286.43 85.4111Z" fill="#3FFFF3"/>
<path d="M283.43 80.4111L221 59L193.436 139.406L255.866 160.818L283.43 80.4111Z" fill="white" stroke="#0A2FF1" stroke-width="0.574988" stroke-linecap="round" stroke-linejoin="round"/>
<path d="M244.62 86.4151C242.407 92.8705 234.746 96.6197 228.29 94.4059C221.849 92.1968 219.027 84.8681 221.245 78.3981C223.458 71.9428 229.849 68.8151 236.304 71.0289C242.774 73.2477 246.829 79.9735 244.62 86.4151Z" stroke="#0A2FF1" stroke-width="0.287494"/>
<mask id="mask0_16970_145838" style="mask-type:alpha" maskUnits="userSpaceOnUse" x="220" y="70" width="26" height="26">
<path d="M244.694 86.4402C242.467 92.936 234.761 96.7068 228.265 94.4791C221.776 92.2536 218.942 84.8755 221.171 78.373C223.398 71.8773 229.834 68.7281 236.329 70.9557C242.832 73.1857 246.918 79.9508 244.694 86.4402Z" fill="white" stroke="#0A2FF1" stroke-width="0.132813"/>
</mask>
<g mask="url(#mask0_16970_145838)">
<path d="M229.46 84.2435C224.281 83.3308 224.67 78.47 227.946 76.3242C227.946 76.3242 229.976 79.011 231.081 79.5137C231.663 79.7787 231.348 81.3647 231.378 81.73L232.324 82.0545C232.775 80.9749 233.53 80.6194 233.919 80.487C234.28 80.3637 234.464 81.2461 233.27 82.3789C232.463 83.1443 232.161 81.7366 231.351 84.8923C230.566 87.9537 233.699 88.9593 235.108 89.3523C233.616 90.5269 229.919 93.0754 226.865 91.8112C223.811 90.5469 225.32 87.5013 226.595 86.4326C227.327 86.5933 228.527 86.9634 228.811 86.1354L229.46 84.2435Z" fill="#04146C"/>
<path d="M232.324 82.0545C232.775 80.9749 233.53 80.6194 233.919 80.487C234.28 80.3637 234.464 81.2461 233.27 82.3789C232.463 83.1443 232.161 81.7366 231.351 84.8923C230.566 87.9537 233.699 88.9593 235.108 89.3523C233.616 90.5269 229.919 93.0754 226.865 91.8112C223.811 90.5469 225.32 87.5013 226.595 86.4326C227.327 86.5933 228.527 86.9634 228.811 86.1354C228.988 85.618 229.312 84.6747 229.46 84.2435C224.281 83.3308 224.67 78.47 227.946 76.3242C227.946 76.3242 229.976 79.011 231.081 79.5137C231.663 79.7787 231.348 81.3647 231.378 81.73M232.324 82.0545C232.079 82.2008 231.453 82.6332 231.378 81.73M232.324 82.0545L231.378 81.73" stroke="#0A2FF1" stroke-width="0.132813"/>
<path d="M230.406 84.5681C224.819 83.5124 224.483 78.3955 227.946 76.3243C227.946 76.3243 231.146 77.188 232.351 78.8923C233.043 78.9913 233.46 79.2078 233.738 79.368L234.169 79.5157C234.327 79.216 234.442 79.0734 234.243 79.5411C234.212 79.558 234.18 79.5642 234.145 79.5617C233.943 79.9532 233.694 80.5538 233.919 80.4871C234.304 80.3728 235.469 81.5959 234.216 82.7034C233.37 83.4518 232.759 83.0104 231.973 86.1629C231.211 89.2211 234.53 89.2441 236.054 89.6768C234.482 90.8186 230.18 93.1641 226.865 91.8113C223.551 90.4586 226.2 87.7982 227.541 86.7571C228.331 86.9382 229.474 87.2852 229.757 86.46L230.406 84.5681Z" fill="white"/>
<path d="M232.351 78.8923C231.146 77.188 227.946 76.3243 227.946 76.3243C224.483 78.3955 224.819 83.5124 230.406 84.5681C230.258 84.9978 229.934 85.9443 229.757 86.46C229.474 87.2852 228.331 86.9382 227.541 86.7571C226.2 87.7982 223.551 90.4586 226.865 91.8113C230.18 93.1641 234.482 90.8186 236.054 89.6768C234.53 89.2441 231.211 89.2211 231.973 86.1629C232.759 83.0104 233.37 83.4518 234.216 82.7034C235.469 81.5959 234.304 80.3728 233.919 80.4871C233.505 80.61 234.699 78.4674 234.243 79.5411M232.351 78.8923C233.653 79.0788 233.983 79.6818 234.243 79.5411M232.351 78.8923C232.172 78.7512 232.472 79.0638 232.351 78.8923ZM232.351 78.8923L234.243 79.5411" stroke="#0A2FF1" stroke-width="0.0862482"/>
<path d="M232.288 78.3148L232.288 78.3149C232.361 78.3347 232.422 78.3511 232.474 78.3651C232.623 78.4052 232.7 78.4258 232.774 78.4514C232.848 78.4769 232.922 78.5077 233.064 78.5675C233.114 78.5885 233.172 78.613 233.242 78.6421L233.318 78.674L233.27 78.7417L233.27 78.7418L233.27 78.7419L233.27 78.7425L233.268 78.7453L233.26 78.7562C233.254 78.7659 233.244 78.7802 233.231 78.7987C233.207 78.8357 233.171 78.8893 233.13 78.9555C233.047 79.0878 232.939 79.2698 232.841 79.4686C232.743 79.6679 232.655 79.8817 232.61 80.0782C232.564 80.277 232.564 80.4457 232.626 80.5644C232.724 80.7506 232.834 80.9203 232.937 81.0781C232.987 81.1561 233.036 81.2311 233.08 81.3037C233.146 81.4113 233.202 81.514 233.236 81.6089C233.268 81.7026 233.282 81.7969 233.253 81.8845M232.288 78.3148L233.189 81.8656M232.288 78.3148L232.284 78.314C232.126 78.28 231.811 78.2698 231.418 78.2605C231.365 78.2592 231.31 78.2579 231.253 78.2567C230.89 78.2484 230.468 78.2389 230.028 78.2144C229.52 78.1861 228.99 78.1379 228.504 78.0493C228.017 77.9605 227.578 77.8319 227.249 77.6451C226.923 77.4597 226.605 77.1312 226.325 76.7238C226.047 76.3171 225.81 75.836 225.644 75.3507C225.478 74.8651 225.384 74.3783 225.39 73.9601C225.396 73.5403 225.502 73.2005 225.721 72.9942C225.957 72.773 226.118 72.7007 226.239 72.7001C226.356 72.6994 226.456 72.767 226.57 72.8858C226.616 72.9341 226.662 72.9882 226.712 73.0464C226.723 73.0594 226.735 73.0726 226.746 73.0859C226.809 73.1585 226.877 73.2355 226.953 73.3091C227.106 73.4567 227.295 73.5923 227.551 73.6589C227.8 73.7237 228.089 73.7446 228.402 73.7486C228.605 73.7512 228.821 73.7467 229.045 73.7421C229.166 73.7396 229.29 73.7371 229.414 73.7356C230.13 73.727 230.906 73.7524 231.654 74.0091C231.703 74.026 231.752 74.0426 231.8 74.0591C233.245 74.5536 234.27 74.9041 235.078 76.2246C235.499 76.9113 235.804 77.7218 235.924 78.5027C236.045 79.284 235.981 80.0283 235.672 80.5894M232.288 78.3148L235.73 80.6225M233.253 81.8845C233.253 81.8854 233.252 81.8863 233.252 81.8872L233.189 81.8656M233.253 81.8845C233.253 81.8836 233.253 81.8828 233.254 81.8819L233.189 81.8656M233.253 81.8845C233.219 82.0187 233.16 82.1546 233.103 82.2854C233.092 82.3109 233.081 82.3362 233.07 82.3613C233.002 82.5193 232.945 82.6699 232.931 82.8178L232.93 82.8257L232.928 82.8331L232.655 83.6274M233.189 81.8656C233.157 81.995 233.1 82.1258 233.042 82.2576C232.963 82.441 232.882 82.6262 232.865 82.8116L232.571 83.6687L232.655 83.6274M232.655 83.6274L232.625 83.7163L233.811 83.136M232.655 83.6274L233.779 83.0775M233.779 83.0775C233.779 83.0779 233.778 83.0783 233.777 83.0787L233.811 83.136M233.779 83.0775L233.782 83.0764L233.811 83.136M233.779 83.0775C234.294 82.775 234.656 82.3408 234.944 81.8873C235.089 81.6602 235.215 81.4291 235.333 81.2076C235.351 81.1733 235.369 81.1392 235.387 81.1053C235.485 80.9219 235.578 80.7462 235.672 80.5894M233.811 83.136C234.644 82.647 235.081 81.8235 235.446 81.1361C235.544 80.9522 235.636 80.778 235.73 80.6225M235.73 80.6225L235.672 80.5905C235.672 80.5901 235.672 80.5898 235.672 80.5894M235.73 80.6225L235.673 80.5883C235.673 80.5887 235.672 80.589 235.672 80.5894" fill="#3957F1" stroke="#0A2FF1" stroke-width="0.132813"/>
<mask id="path-10-inside-1_16970_145838" fill="white">
<path fill-rule="evenodd" clip-rule="evenodd" d="M232.881 82.7093C233.216 82.4129 233.464 82.0543 233.73 81.6226C234.347 80.5238 233.433 79.4062 233.433 79.4062L233.135 77.1899C233.135 77.1899 231.197 75.468 229.676 74.9463C228.784 74.6403 227.857 74.66 227.048 74.6771C226.497 74.6887 226.001 74.6992 225.608 74.6048C225.988 75.4477 226.778 76.3319 227.542 76.7568C228.9 77.513 231.669 78.2461 232.271 78.3789C232.555 78.457 232.655 78.4819 232.753 78.5154C232.851 78.5489 232.945 78.5909 233.217 78.7033C233.217 78.7033 232.268 80.0543 232.569 80.5952C232.658 80.7561 232.757 80.9108 232.85 81.0555C233.069 81.3971 233.253 81.6832 233.19 81.8656C233.16 81.9883 233.103 82.1199 233.045 82.2537C232.979 82.406 232.912 82.5612 232.881 82.7093Z"/>
</mask>
<path fill-rule="evenodd" clip-rule="evenodd" d="M232.881 82.7093C233.216 82.4129 233.464 82.0543 233.73 81.6226C234.347 80.5238 233.433 79.4062 233.433 79.4062L233.135 77.1899C233.135 77.1899 231.197 75.468 229.676 74.9463C228.784 74.6403 227.857 74.66 227.048 74.6771C226.497 74.6887 226.001 74.6992 225.608 74.6048C225.988 75.4477 226.778 76.3319 227.542 76.7568C228.9 77.513 231.669 78.2461 232.271 78.3789C232.555 78.457 232.655 78.4819 232.753 78.5154C232.851 78.5489 232.945 78.5909 233.217 78.7033C233.217 78.7033 232.268 80.0543 232.569 80.5952C232.658 80.7561 232.757 80.9108 232.85 81.0555C233.069 81.3971 233.253 81.6832 233.19 81.8656C233.16 81.9883 233.103 82.1199 233.045 82.2537C232.979 82.406 232.912 82.5612 232.881 82.7093Z" fill="#04146C"/>
<path d="M232.881 82.7093L232.751 82.6823L232.67 83.0735L232.969 82.8088L232.881 82.7093ZM233.73 81.6226L233.843 81.6923L233.846 81.6876L233.73 81.6226ZM233.433 79.4062L233.301 79.4239L233.306 79.4612L233.33 79.4903L233.433 79.4062ZM233.135 77.1899L233.267 77.1723L233.261 77.1234L233.224 77.0906L233.135 77.1899ZM227.048 74.6771L227.046 74.5443L227.046 74.5443L227.048 74.6771ZM225.608 74.6048L225.64 74.4757L225.376 74.4123L225.487 74.6593L225.608 74.6048ZM227.542 76.7568L227.606 76.6408L227.542 76.7568ZM232.271 78.3789L232.307 78.2507L232.3 78.2492L232.271 78.3789ZM233.217 78.7033L233.326 78.7797L233.421 78.6439L233.268 78.5805L233.217 78.7033ZM232.569 80.5952L232.453 80.6598L232.569 80.5952ZM232.85 81.0555L232.738 81.1272L232.85 81.0555ZM233.19 81.8656L233.064 81.8223L233.061 81.8335L233.19 81.8656ZM233.045 82.2537L233.167 82.3065L233.167 82.3065L233.045 82.2537ZM232.969 82.8088C233.319 82.4988 233.576 82.1262 233.843 81.6922L233.617 81.5529C233.353 81.9824 233.113 82.3269 232.793 82.6098L232.969 82.8088ZM233.846 81.6876C234.18 81.0925 234.097 80.4947 233.938 80.057C233.858 79.8378 233.758 79.6553 233.679 79.5277C233.639 79.4638 233.604 79.4132 233.578 79.3782C233.566 79.3608 233.555 79.3472 233.548 79.3377C233.544 79.333 233.541 79.3293 233.539 79.3267C233.538 79.3254 233.537 79.3244 233.537 79.3236C233.536 79.3232 233.536 79.3229 233.536 79.3226C233.536 79.3225 233.536 79.3224 233.536 79.3223C233.536 79.3223 233.536 79.3222 233.536 79.3222C233.536 79.3222 233.536 79.3221 233.433 79.4062C233.33 79.4903 233.33 79.4903 233.33 79.4903C233.33 79.4903 233.33 79.4902 233.33 79.4902C233.33 79.4902 233.33 79.4902 233.33 79.4902C233.33 79.4902 233.33 79.4903 233.33 79.4905C233.33 79.4908 233.331 79.4914 233.332 79.4922C233.333 79.4939 233.335 79.4966 233.338 79.5004C233.344 79.5078 233.352 79.5193 233.364 79.5346C233.386 79.565 233.417 79.6103 233.453 79.6683C233.526 79.7846 233.616 79.9502 233.688 80.1477C233.832 80.5435 233.897 81.0539 233.614 81.5575L233.846 81.6876ZM233.564 79.3886L233.267 77.1723L233.004 77.2076L233.301 79.4239L233.564 79.3886ZM233.135 77.1899C233.224 77.0906 233.224 77.0906 233.224 77.0906C233.224 77.0906 233.224 77.0905 233.224 77.0905C233.223 77.0904 233.223 77.0903 233.223 77.0902C233.223 77.09 233.223 77.0896 233.222 77.0892C233.221 77.0883 233.22 77.087 233.218 77.0853C233.214 77.0819 233.208 77.0769 233.201 77.0705C233.186 77.0575 233.164 77.0385 233.136 77.0142C233.079 76.9655 232.997 76.8957 232.893 76.8103C232.686 76.6395 232.395 76.4063 232.055 76.1567C231.378 75.6597 230.5 75.0884 229.719 74.8207L229.633 75.0719C230.373 75.3258 231.225 75.8763 231.898 76.3708C232.232 76.6168 232.52 76.8467 232.724 77.0151C232.826 77.0993 232.907 77.168 232.963 77.2156C232.99 77.2394 233.012 77.2579 233.026 77.2704C233.033 77.2767 233.038 77.2814 233.042 77.2846C233.044 77.2862 233.045 77.2873 233.046 77.2881C233.046 77.2885 233.047 77.2888 233.047 77.289C233.047 77.2891 233.047 77.2891 233.047 77.2892C233.047 77.2892 233.047 77.2892 233.047 77.2892C233.047 77.2892 233.047 77.2892 233.135 77.1899ZM229.719 74.8207C228.801 74.5059 227.851 74.5272 227.046 74.5443L227.051 74.8099C227.863 74.7927 228.767 74.7748 229.633 75.0719L229.719 74.8207ZM227.046 74.5443C226.489 74.5561 226.012 74.5652 225.64 74.4757L225.577 74.7339C225.991 74.8333 226.506 74.8214 227.051 74.8099L227.046 74.5443ZM225.487 74.6593C225.878 75.5262 226.687 76.433 227.477 76.8729L227.606 76.6408C226.87 76.2308 226.098 75.3692 225.73 74.5503L225.487 74.6593ZM227.477 76.8729C228.169 77.258 229.212 77.6337 230.15 77.9283C231.091 78.2236 231.937 78.4412 232.243 78.5086L232.3 78.2492C232.003 78.1838 231.164 77.9684 230.23 77.6749C229.293 77.3807 228.273 77.0117 227.606 76.6408L227.477 76.8729ZM232.236 78.5069C232.524 78.5863 232.617 78.6093 232.71 78.641L232.796 78.3898C232.693 78.3545 232.585 78.3276 232.306 78.2508L232.236 78.5069ZM232.71 78.641C232.802 78.6728 232.89 78.7118 233.166 78.826L233.268 78.5805C233.001 78.4701 232.899 78.425 232.796 78.3898L232.71 78.641ZM233.217 78.7033C233.108 78.6269 233.108 78.6269 233.108 78.627C233.108 78.627 233.108 78.627 233.108 78.627C233.108 78.6271 233.108 78.6272 233.108 78.6273C233.108 78.6275 233.108 78.6278 233.108 78.6282C233.107 78.6289 233.106 78.63 233.105 78.6314C233.103 78.6342 233.101 78.6382 233.097 78.6434C233.09 78.6539 233.079 78.6691 233.066 78.6886C233.04 78.7276 233.004 78.7836 232.961 78.8525C232.875 78.99 232.763 79.1798 232.661 79.3877C232.559 79.5946 232.463 79.8246 232.413 80.0416C232.365 80.2534 232.353 80.4804 232.453 80.6598L232.685 80.5306C232.634 80.4396 232.628 80.2948 232.672 80.1012C232.716 79.9128 232.801 79.7036 232.899 79.5051C232.996 79.3077 233.103 79.1259 233.186 78.9932C233.227 78.9269 233.263 78.8732 233.287 78.8362C233.3 78.8177 233.309 78.8033 233.316 78.7938C233.319 78.789 233.322 78.7853 233.323 78.783C233.324 78.7818 233.325 78.7809 233.325 78.7804C233.325 78.7801 233.326 78.7799 233.326 78.7798C233.326 78.7797 233.326 78.7797 233.326 78.7797C233.326 78.7797 233.326 78.7797 233.326 78.7796C233.326 78.7797 233.326 78.7797 233.217 78.7033ZM232.453 80.6598C232.544 80.8249 232.646 80.983 232.738 81.1272L232.962 80.9838C232.869 80.8386 232.772 80.6874 232.685 80.5306L232.453 80.6598ZM232.738 81.1272C232.849 81.3004 232.945 81.4496 233.006 81.5775C233.07 81.7123 233.077 81.7856 233.065 81.8225L233.316 81.9087C233.366 81.7631 233.312 81.6022 233.246 81.463C233.176 81.3169 233.07 81.1522 232.962 80.9838L232.738 81.1272ZM233.061 81.8335C233.034 81.9435 232.982 82.0645 232.923 82.201L233.167 82.3065C233.223 82.1754 233.285 82.0331 233.319 81.8976L233.061 81.8335ZM232.923 82.201C232.858 82.3502 232.785 82.5183 232.751 82.6823L233.011 82.7363C233.038 82.604 233.099 82.4619 233.167 82.3065L232.923 82.201Z" fill="#0A2FF1" mask="url(#path-10-inside-1_16970_145838)"/>
<path d="M236.648 92.1091C236.901 89.8425 234.597 88.7957 232.567 88.5951C232.567 88.5951 231.383 88.9298 228.784 87.2975C225.556 85.2705 224.29 88.4442 224.027 88.8377L221.433 96.4054L220.784 98.2973L223.298 100.216C225.234 100.881 224.723 100.488 228.027 101.839C231.331 103.189 233.821 103.252 234.973 103.163C235.486 99.562 236.444 93.9444 236.648 92.1091Z" fill="#8A9AF1" stroke="#0A2FF1" stroke-width="0.132813"/>
<path d="M225.946 92.3242C224.939 97.1932 223.725 98.8035 223.027 100.838L222.081 100.513C223.779 97.5956 224.007 97.3191 225.946 92.3242Z" fill="#0A2FF1" stroke="#0A2FF1" stroke-width="0.132813"/>
<path d="M231.459 102.244L226.405 101.567L230.837 100.973L232.134 97.1893L232.783 95.2974L231.459 102.244Z" fill="#0A2FF1" stroke="#0A2FF1" stroke-width="0.132813"/>
<path d="M229.892 86.6486C227.704 87.4539 225.551 89.0248 229.243 88.5405L229.892 86.6486Z" fill="#3957F1" stroke="#0A2FF1" stroke-width="0.132813"/>
<path d="M232.108 87.3513C232.974 89.3052 234.243 91.8722 231.46 89.2432L232.108 87.3513Z" fill="#3957F1" stroke="#0A2FF1" stroke-width="0.132813"/>
<path d="M229.578 90.1125C228.563 89.9217 227.75 89.8945 229 86.9997L231.97 87.4234C231.55 88.2272 230.879 90.3568 229.578 90.1125Z" fill="white"/>
<path d="M233.578 79.701L233.606 79.7198L233.608 79.7538L233.608 79.7538L233.608 79.7538L233.608 79.754L233.608 79.7551L233.608 79.7595L233.609 79.7774C233.61 79.7932 233.611 79.8166 233.613 79.8465C233.618 79.9064 233.626 79.9926 233.639 80.0972C233.665 80.3065 233.711 80.5886 233.793 80.8807C233.875 81.1732 233.992 81.4728 234.158 81.719C234.323 81.9649 234.534 82.1537 234.803 82.2334L234.804 82.2336C234.872 82.2544 234.959 82.2409 235.065 82.1846C235.171 82.1286 235.288 82.0344 235.412 81.9089C235.66 81.6584 235.923 81.2936 236.163 80.8959C236.402 80.4987 236.615 80.0718 236.761 79.699C236.834 79.5126 236.891 79.3407 236.926 79.1936C236.961 79.0451 236.973 78.9273 236.962 78.8466C236.913 78.4876 236.763 78.1792 236.623 77.9594C236.553 77.8498 236.487 77.7629 236.438 77.7036C236.413 77.674 236.393 77.6513 236.379 77.6361L236.364 77.6192L236.36 77.6151L236.359 77.6142L236.359 77.614L236.359 77.614L236.359 77.614L236.359 77.614L236.345 77.5999L236.341 77.5804L236.341 77.5804L236.341 77.5804L236.341 77.5802L236.341 77.5791L236.34 77.5745L236.336 77.5558C236.332 77.5392 236.326 77.5147 236.318 77.4831C236.302 77.42 236.278 77.3289 236.243 77.2177C236.174 76.9952 236.063 76.6929 235.899 76.3737C235.571 75.7335 235.035 75.0357 234.196 74.7654C233.343 74.4902 232.323 74.4024 231.514 74.3841C231.11 74.375 230.76 74.3831 230.511 74.3936C230.386 74.3988 230.287 74.4046 230.219 74.4091C230.185 74.4113 230.159 74.4132 230.141 74.4146L230.121 74.4161L230.116 74.4165L230.115 74.4166L230.115 74.4167L230.115 74.4167L230.109 74.3505M233.578 79.701L229.117 74.0741M233.578 79.701L233.578 79.701L233.578 79.701L233.577 79.7006L233.575 79.6988L233.564 79.6912C233.554 79.6844 233.54 79.6741 233.521 79.6603C233.484 79.6326 233.432 79.5911 233.368 79.5362C233.242 79.4263 233.075 79.2632 232.913 79.0508C232.589 78.6259 232.287 78.0071 232.364 77.2221L232.373 77.1306L232.283 77.1509L232.298 77.2156M233.578 79.701L232.298 77.2156M230.109 74.3505L230.115 74.4167L230.059 74.4215L230.045 74.3673L230.109 74.3505ZM230.109 74.3505L230.045 74.3673L230.045 74.3673L230.045 74.3671L230.044 74.3665L230.044 74.3638L230.041 74.3532L230.03 74.3126C230.02 74.2776 230.006 74.2275 229.988 74.1675C229.952 74.0472 229.901 73.8876 229.842 73.7291C229.782 73.5699 229.715 73.4149 229.647 73.3023C229.612 73.2458 229.58 73.2034 229.55 73.1766C229.52 73.1489 229.502 73.1455 229.493 73.1463C229.46 73.1492 229.419 73.1808 229.377 73.2677C229.337 73.3499 229.307 73.4607 229.284 73.5754C229.262 73.6892 229.248 73.8028 229.24 73.8882C229.236 73.9308 229.233 73.9663 229.232 73.9909L229.23 74.0194L229.229 74.0268L229.229 74.0286L229.229 74.029L229.229 74.0291L229.229 74.0291L229.223 74.175L229.117 74.0741M229.117 74.0741L229.117 74.0741L229.117 74.0741L229.117 74.0738L229.115 74.0726L229.11 74.0676L229.089 74.0485C229.071 74.032 229.044 74.0088 229.011 73.9818C228.945 73.9276 228.855 73.8593 228.758 73.8011C228.66 73.7422 228.559 73.6968 228.47 73.6832C228.383 73.6701 228.316 73.6876 228.268 73.7448C228.138 73.8967 227.806 74.4324 227.67 75.0493C227.535 75.664 227.597 76.3423 228.23 76.8106C228.872 77.2861 229.878 77.3756 230.738 77.3411C231.165 77.3239 231.552 77.2763 231.832 77.2329C231.972 77.2113 232.085 77.1907 232.163 77.1755C232.202 77.168 232.232 77.1618 232.253 77.1575L232.276 77.1525L232.282 77.1513L232.283 77.151L232.283 77.1509L232.283 77.1509L232.298 77.2156M229.117 74.0741L232.298 77.2156" fill="#3957F1" stroke="#0A2FF1" stroke-width="0.132813"/>
<mask id="path-19-inside-2_16970_145838" fill="white">
<path d="M234.352 78.8917C234.402 78.4161 233.892 78.0361 233.73 77.6214C233.567 77.2153 233.464 76.5348 233.109 76.351C233.023 76.2998 233.201 76.3868 233.109 76.351C232.914 76.3037 232.363 76.0533 232.163 76.0266C231.958 76.0289 232.368 76.0133 232.163 76.0266C231.957 76.0399 231.1 76.6338 230.893 76.6481C231.101 76.6035 231.953 76.0675 232.163 76.0266C232.372 75.9857 231.949 76.0403 232.163 76.0266C232.586 76.0254 232.737 76.1613 233.109 76.351C233.483 76.551 233.571 77.1824 233.73 77.6214C233.882 78.0561 234.449 78.4069 234.352 78.8917Z"/>
</mask>
<path d="M234.352 78.8917C234.402 78.4161 233.892 78.0361 233.73 77.6214C233.567 77.2153 233.464 76.5348 233.109 76.351C233.023 76.2998 233.201 76.3868 233.109 76.351C232.914 76.3037 232.363 76.0533 232.163 76.0266C231.958 76.0289 232.368 76.0133 232.163 76.0266C231.957 76.0399 231.1 76.6338 230.893 76.6481C231.101 76.6035 231.953 76.0675 232.163 76.0266C232.372 75.9857 231.949 76.0403 232.163 76.0266C232.586 76.0254 232.737 76.1613 233.109 76.351C233.483 76.551 233.571 77.1824 233.73 77.6214C233.882 78.0561 234.449 78.4069 234.352 78.8917Z" fill="white"/>
<path d="M233.73 77.6214L233.854 77.5718L233.854 77.573L233.73 77.6214ZM233.109 76.351L233.048 76.4691L233.041 76.4651L233.109 76.351ZM232.163 76.0266L232.161 75.8938L232.171 75.8937L232.18 75.8949L232.163 76.0266ZM230.893 76.6481L230.902 76.7806L230.865 76.5182L230.893 76.6481ZM232.163 76.0266L232.154 75.8938L232.162 75.8938L232.163 76.0266ZM233.109 76.351L233.169 76.2327L233.171 76.2339L233.109 76.351ZM233.73 77.6214L233.855 77.5761L233.856 77.5777L233.73 77.6214ZM234.22 78.8778C234.239 78.6914 234.151 78.5128 234.011 78.3088C233.977 78.2589 233.941 78.2092 233.904 78.1581C233.867 78.1076 233.829 78.0555 233.793 78.0032C233.722 77.8992 233.653 77.7877 233.607 77.6697L233.854 77.573C233.889 77.6623 233.944 77.7539 234.012 77.8526C234.046 77.9017 234.082 77.951 234.119 78.0022C234.156 78.0529 234.194 78.1054 234.23 78.1586C234.373 78.3672 234.514 78.6164 234.484 78.9056L234.22 78.8778ZM233.607 77.6709C233.564 77.5634 233.525 77.4394 233.487 77.3166C233.449 77.1917 233.411 77.0668 233.367 76.9491C233.276 76.7045 233.176 76.5352 233.048 76.4689L233.17 76.233C233.397 76.3506 233.526 76.6135 233.616 76.8566C233.663 76.9828 233.703 77.1156 233.741 77.2382C233.78 77.363 233.815 77.4763 233.854 77.5718L233.607 77.6709ZM233.041 76.4651C233.035 76.4615 233.029 76.4581 233.024 76.455C233.02 76.4521 233.014 76.4486 233.009 76.4447C233.007 76.4428 233.002 76.4398 232.998 76.4358C232.996 76.4338 232.992 76.4308 232.989 76.4269C232.987 76.4249 232.985 76.4224 232.982 76.4194C232.98 76.4164 232.977 76.4124 232.973 76.4074C232.97 76.4025 232.966 76.3955 232.962 76.3864C232.959 76.3776 232.954 76.3642 232.952 76.3473C232.951 76.3297 232.952 76.3075 232.962 76.2842C232.966 76.2727 232.973 76.2621 232.98 76.2526C232.987 76.2432 232.996 76.2355 233.004 76.2292C233.019 76.2171 233.035 76.2108 233.046 76.2074C233.057 76.204 233.067 76.2027 233.074 76.2021C233.08 76.2015 233.086 76.2015 233.091 76.2017C233.095 76.2019 233.099 76.2022 233.102 76.2026C233.108 76.2033 233.112 76.2043 233.116 76.205C233.119 76.2058 233.122 76.2065 233.124 76.2071C233.128 76.2084 233.132 76.2096 233.134 76.2105C233.139 76.2123 233.144 76.2141 233.147 76.2157C233.155 76.2188 233.162 76.2224 233.169 76.2258C233.176 76.2292 233.184 76.2331 233.191 76.237C233.194 76.2389 233.199 76.2414 233.203 76.2442C233.205 76.2456 233.209 76.2476 233.212 76.2501C233.214 76.2514 233.216 76.2531 233.219 76.2551C233.221 76.2571 233.225 76.2601 233.229 76.2641C233.231 76.2661 233.233 76.2687 233.236 76.2719C233.239 76.275 233.242 76.2793 233.246 76.2847C233.249 76.2899 233.254 76.2976 233.258 76.3076C233.263 76.3175 233.267 76.3323 233.269 76.351C233.27 76.3705 233.267 76.3936 233.256 76.4168C233.245 76.4399 233.229 76.4564 233.214 76.4675C233.199 76.4782 233.185 76.4838 233.175 76.4868C233.165 76.4899 233.156 76.4913 233.15 76.4919C233.144 76.4926 233.138 76.4928 233.134 76.4927C233.13 76.4927 233.127 76.4925 233.124 76.4922C233.118 76.4918 233.114 76.491 233.111 76.4905C233.105 76.4894 233.1 76.488 233.096 76.4872C233.09 76.4854 233.084 76.4833 233.079 76.4816C233.073 76.4797 233.067 76.4774 233.061 76.4749L233.157 76.2271C233.162 76.229 233.165 76.2303 233.167 76.2311C233.17 76.232 233.169 76.2318 233.167 76.2312C233.166 76.2309 233.163 76.2299 233.158 76.2291C233.156 76.2286 233.152 76.228 233.146 76.2276C233.144 76.2273 233.141 76.2271 233.137 76.2271C233.133 76.2271 233.128 76.2272 233.121 76.2279C233.115 76.2285 233.107 76.2298 233.097 76.2329C233.087 76.2359 233.073 76.2415 233.058 76.252C233.043 76.2631 233.027 76.2796 233.016 76.3026C233.005 76.3257 233.002 76.3488 233.004 76.3682C233.005 76.3868 233.01 76.4015 233.014 76.4113C233.018 76.4212 233.023 76.4288 233.026 76.4339C233.03 76.4392 233.033 76.4433 233.036 76.4463C233.038 76.4494 233.041 76.4518 233.043 76.4537C233.046 76.4574 233.05 76.4601 233.052 76.4617C233.054 76.4634 233.056 76.4647 233.057 76.4656C233.059 76.4674 233.061 76.4685 233.062 76.4689C233.063 76.4698 233.064 76.47 233.063 76.4695C233.061 76.4684 233.057 76.4667 233.053 76.4646C233.049 76.4626 233.045 76.461 233.044 76.4602C233.042 76.4598 233.043 76.46 233.045 76.4606C233.045 76.4609 233.047 76.4616 233.05 76.4624C233.052 76.4629 233.054 76.4635 233.057 76.4641C233.059 76.4647 233.064 76.4656 233.069 76.4662C233.072 76.4666 233.076 76.4669 233.08 76.4671C233.084 76.4673 233.09 76.4673 233.096 76.4667C233.103 76.4662 233.112 76.4649 233.124 76.4615C233.134 76.4581 233.15 76.4519 233.166 76.4398C233.174 76.4336 233.182 76.4259 233.189 76.4165C233.197 76.407 233.203 76.3964 233.207 76.385C233.217 76.3617 233.218 76.3396 233.217 76.3221C233.215 76.3053 233.211 76.292 233.207 76.2833C233.203 76.2744 233.199 76.2674 233.196 76.2627C233.193 76.2578 233.19 76.254 233.188 76.2511C233.185 76.2483 233.183 76.2459 233.181 76.2441C233.178 76.2406 233.175 76.238 233.174 76.2364C233.17 76.2334 233.167 76.2314 233.167 76.2308C233.165 76.2295 233.164 76.2294 233.167 76.2309C233.169 76.2322 233.172 76.2341 233.177 76.2369L233.041 76.4651ZM233.077 76.48C232.969 76.4537 232.77 76.3741 232.59 76.3051C232.497 76.2692 232.405 76.2347 232.325 76.2077C232.243 76.1798 232.181 76.163 232.145 76.1582L232.18 75.8949C232.244 75.9035 232.327 75.928 232.41 75.956C232.496 75.9849 232.592 76.0211 232.685 76.0571C232.88 76.1317 233.054 76.2009 233.14 76.2219L233.077 76.48ZM232.164 76.1594C232.139 76.1597 232.121 76.1597 232.11 76.1595C232.107 76.1594 232.104 76.1594 232.101 76.1592C232.099 76.1591 232.097 76.159 232.095 76.1588C232.093 76.1586 232.089 76.1583 232.084 76.1575C232.081 76.1571 232.077 76.1564 232.071 76.155C232.069 76.1543 232.065 76.1532 232.06 76.1516C232.056 76.1501 232.049 76.1475 232.041 76.1431C232.037 76.1411 232.03 76.1363 232.026 76.1334C232.021 76.1297 232.01 76.1204 232.005 76.1149C231.999 76.1075 231.987 76.0898 231.982 76.0794C231.977 76.0668 231.972 76.0394 231.971 76.025C231.972 76.0107 231.978 75.9842 231.982 75.9722C231.987 75.9625 231.998 75.9459 232.004 75.939C232.008 75.9338 232.018 75.925 232.022 75.9214C232.026 75.9186 232.033 75.9138 232.036 75.9119C232.043 75.9074 232.05 75.9046 232.054 75.903C232.058 75.9012 232.062 75.9 232.064 75.8992C232.069 75.8976 232.074 75.8966 232.076 75.8961C232.081 75.8951 232.085 75.8945 232.087 75.8942C232.091 75.8936 232.094 75.8933 232.096 75.8931C232.099 75.8929 232.102 75.8926 232.104 75.8925C232.109 75.8921 232.114 75.8918 232.12 75.8915C232.131 75.8909 232.145 75.8903 232.158 75.8898C232.171 75.8892 232.185 75.8888 232.196 75.8886C232.202 75.8885 232.207 75.8884 232.212 75.8883C232.215 75.8883 232.217 75.8883 232.22 75.8884C232.222 75.8884 232.226 75.8885 232.23 75.8888C232.232 75.8889 232.236 75.8893 232.241 75.89C232.244 75.8904 232.249 75.8912 232.254 75.8927C232.257 75.8934 232.262 75.8946 232.267 75.8965C232.272 75.8982 232.28 75.9014 232.289 75.9069C232.293 75.9094 232.302 75.9156 232.307 75.9193C232.313 75.9242 232.324 75.9363 232.33 75.9437C232.336 75.9531 232.347 75.9753 232.351 75.988C232.354 76.0022 232.355 76.0311 232.353 76.0454C232.35 76.0582 232.341 76.0809 232.336 76.0907C232.331 76.0983 232.32 76.1111 232.315 76.1164C232.311 76.1204 232.303 76.1272 232.299 76.1301C232.296 76.1323 232.29 76.1361 232.287 76.1377C232.28 76.1413 232.275 76.1437 232.271 76.1451C232.267 76.1466 232.264 76.1477 232.262 76.1485C232.257 76.1499 232.253 76.1508 232.251 76.1513C232.247 76.1524 232.243 76.153 232.241 76.1533C232.239 76.1536 232.237 76.1539 232.235 76.1541C232.232 76.1545 232.229 76.1548 232.226 76.1551C232.215 76.1561 232.197 76.1575 232.171 76.1591L232.154 75.894C232.18 75.8924 232.194 75.8913 232.201 75.8906C232.202 75.8905 232.203 75.8904 232.202 75.8905C232.202 75.8905 232.201 75.8906 232.2 75.8908C232.199 75.891 232.196 75.8914 232.192 75.8923C232.19 75.8928 232.187 75.8936 232.182 75.895C232.18 75.8958 232.177 75.8968 232.173 75.8983C232.169 75.8997 232.164 75.9021 232.157 75.9057C232.155 75.9073 232.149 75.911 232.145 75.9132C232.142 75.916 232.133 75.9228 232.129 75.9268C232.124 75.9321 232.114 75.9449 232.109 75.9525C232.103 75.9623 232.095 75.985 232.092 75.9977C232.09 76.0121 232.091 76.041 232.094 76.0552C232.098 76.0679 232.108 76.09 232.115 76.0994C232.12 76.1068 232.132 76.1189 232.137 76.1238C232.142 76.1275 232.151 76.1337 232.155 76.1362C232.164 76.1416 232.173 76.1448 232.177 76.1465C232.182 76.1483 232.187 76.1495 232.19 76.1502C232.195 76.1517 232.2 76.1524 232.202 76.1528C232.207 76.1535 232.21 76.1537 232.212 76.1538C232.214 76.154 232.216 76.154 232.215 76.154C232.215 76.154 232.214 76.154 232.213 76.154C232.211 76.154 232.207 76.154 232.202 76.1541C232.193 76.1544 232.181 76.1547 232.168 76.1552C232.156 76.1557 232.144 76.1562 232.134 76.1567C232.13 76.157 232.126 76.1572 232.123 76.1574C232.122 76.1575 232.121 76.1576 232.121 76.1576C232.12 76.1576 232.122 76.1575 232.124 76.1572C232.125 76.157 232.129 76.1566 232.133 76.1556C232.135 76.1552 232.139 76.1542 232.144 76.1527C232.146 76.1519 232.15 76.1507 232.154 76.149C232.158 76.1474 232.164 76.1446 232.172 76.1402C232.175 76.1382 232.182 76.1335 232.186 76.1307C232.19 76.1271 232.199 76.1183 232.204 76.1131C232.21 76.1062 232.22 76.0897 232.225 76.0799C232.23 76.068 232.236 76.0415 232.237 76.0273C232.236 76.0128 232.23 75.9854 232.225 75.9728C232.22 75.9624 232.209 75.9448 232.203 75.9374C232.197 75.9319 232.187 75.9226 232.182 75.9189C232.178 75.916 232.17 75.9112 232.167 75.9093C232.159 75.9049 232.152 75.9023 232.148 75.9008C232.143 75.8992 232.139 75.8982 232.137 75.8975C232.132 75.8962 232.127 75.8955 232.125 75.8951C232.121 75.8944 232.117 75.8942 232.116 75.8941C232.115 75.894 232.114 75.8939 232.114 75.8939C232.113 75.8939 232.114 75.8939 232.115 75.8939C232.122 75.894 232.136 75.8941 232.161 75.8938L232.164 76.1594ZM232.171 76.1591C232.172 76.1591 232.166 76.1595 232.154 76.1632C232.142 76.1667 232.126 76.172 232.107 76.1797C232.069 76.1951 232.022 76.2174 231.967 76.2454C231.858 76.3016 231.728 76.3759 231.594 76.4523C231.462 76.5278 231.326 76.6054 231.21 76.665C231.152 76.6948 231.097 76.7212 231.048 76.741C231.002 76.7595 230.95 76.7773 230.902 76.7806L230.883 76.5156C230.883 76.5156 230.884 76.5156 230.888 76.5149C230.891 76.5142 230.896 76.5131 230.902 76.5114C230.914 76.5078 230.929 76.5024 230.948 76.4947C230.987 76.4792 231.034 76.4568 231.089 76.4287C231.198 76.3724 231.329 76.2981 231.462 76.2216C231.595 76.1461 231.73 76.0685 231.846 76.0091C231.904 75.9794 231.959 75.953 232.008 75.9333C232.053 75.915 232.106 75.8971 232.154 75.894L232.171 76.1591ZM230.865 76.5182C230.897 76.5114 230.973 76.4787 231.089 76.4195C231.2 76.3634 231.33 76.292 231.464 76.2193C231.596 76.1473 231.73 76.0739 231.845 76.016C231.903 75.9871 231.957 75.9612 232.004 75.941C232.05 75.9217 232.097 75.9041 232.137 75.8962L232.188 76.1569C232.176 76.1592 232.151 76.1674 232.109 76.1854C232.068 76.2025 232.02 76.2256 231.965 76.2533C231.855 76.3088 231.724 76.38 231.591 76.4526C231.459 76.5246 231.324 76.5981 231.21 76.6563C231.101 76.7115 230.993 76.7625 230.92 76.778L230.865 76.5182ZM232.137 75.8962C232.15 75.8938 232.159 75.8918 232.167 75.8902C232.174 75.8886 232.178 75.8876 232.179 75.8873C232.18 75.8871 232.178 75.8875 232.175 75.8885C232.174 75.889 232.171 75.8899 232.168 75.8914C232.166 75.8922 232.164 75.8932 232.161 75.8946C232.159 75.896 232.155 75.898 232.151 75.9008C232.146 75.9034 232.14 75.9078 232.133 75.9142C232.13 75.9174 232.125 75.9217 232.121 75.927C232.116 75.9324 232.111 75.9394 232.106 75.9482C232.102 75.957 232.097 75.9683 232.094 75.9818C232.09 75.9956 232.089 76.011 232.091 76.0272C232.093 76.0435 232.098 76.0585 232.104 76.0717C232.111 76.0846 232.119 76.0949 232.126 76.1027C232.133 76.1105 232.141 76.1163 232.147 76.1205C232.153 76.1248 232.158 76.128 232.163 76.1303C232.172 76.1348 232.18 76.1373 232.184 76.1388C232.19 76.1403 232.194 76.1413 232.197 76.1418C232.2 76.1424 232.203 76.1428 232.205 76.1431C232.209 76.1435 232.212 76.1437 232.213 76.1438C232.215 76.1439 232.217 76.1439 232.217 76.1439C232.219 76.1439 232.219 76.1439 232.219 76.1439C232.217 76.1439 232.215 76.1441 232.21 76.1445C232.202 76.1453 232.19 76.1465 232.178 76.1481C232.166 76.1497 232.155 76.1513 232.146 76.1528C232.142 76.1535 232.139 76.154 232.138 76.1543C232.138 76.1544 232.138 76.1543 232.14 76.1539C232.14 76.1537 232.142 76.1534 232.143 76.1528C232.145 76.1523 232.148 76.1513 232.152 76.1498C232.153 76.1491 232.156 76.148 232.159 76.1466C232.162 76.1452 232.166 76.1431 232.171 76.1401C232.175 76.1374 232.182 76.1326 232.19 76.1256C232.194 76.122 232.199 76.1172 232.204 76.1112C232.209 76.1052 232.214 76.0972 232.219 76.0872C232.224 76.0772 232.229 76.0646 232.232 76.0499C232.234 76.0349 232.234 76.019 232.231 76.0029C232.225 75.9701 232.208 75.9472 232.194 75.9336C232.188 75.9269 232.181 75.9218 232.175 75.9181C232.17 75.9143 232.165 75.9115 232.161 75.9094C232.153 75.9054 232.146 75.9029 232.141 75.9015C232.137 75.9 232.133 75.8991 232.13 75.8984C232.127 75.8978 232.124 75.8974 232.123 75.8971C232.119 75.8966 232.116 75.8963 232.115 75.8962C232.112 75.896 232.111 75.896 232.111 75.896C232.113 75.896 232.117 75.896 232.124 75.8957C232.132 75.8954 232.142 75.8948 232.154 75.894L232.171 76.1591C232.157 76.16 232.145 76.1607 232.135 76.1611C232.126 76.1615 232.117 76.1617 232.109 76.1616C232.105 76.1616 232.099 76.1615 232.094 76.161C232.091 76.1608 232.087 76.1604 232.082 76.1597C232.08 76.1593 232.077 76.1588 232.074 76.1581C232.071 76.1574 232.066 76.1564 232.061 76.1548C232.057 76.1533 232.049 76.1507 232.041 76.1466C232.037 76.1444 232.032 76.1415 232.026 76.1378C232.021 76.134 232.014 76.1289 232.007 76.122C231.993 76.1084 231.976 76.0853 231.97 76.0524C231.967 76.0363 231.967 76.0203 231.97 76.0052C231.972 75.9904 231.977 75.9778 231.982 75.9677C231.987 75.9576 231.993 75.9496 231.998 75.9435C232.003 75.9374 232.007 75.9326 232.012 75.9289C232.019 75.9218 232.027 75.9169 232.031 75.914C232.036 75.9109 232.041 75.9086 232.044 75.9071C232.047 75.9055 232.05 75.9043 232.053 75.9033C232.057 75.9015 232.061 75.9002 232.064 75.8994C232.066 75.8985 232.069 75.8978 232.071 75.8972C232.075 75.8961 232.079 75.8952 232.082 75.8945C232.089 75.8932 232.096 75.8919 232.102 75.8909C232.115 75.8887 232.13 75.8865 232.144 75.8846C232.159 75.8828 232.174 75.8811 232.187 75.8799C232.193 75.8793 232.2 75.8788 232.207 75.8785C232.21 75.8784 232.214 75.8783 232.218 75.8783C232.22 75.8783 232.223 75.8783 232.226 75.8785C232.229 75.8786 232.233 75.8788 232.237 75.8794C232.24 75.8797 232.243 75.8802 232.246 75.8808C232.25 75.8815 232.254 75.8825 232.26 75.8841C232.265 75.8856 232.273 75.8883 232.282 75.8929C232.287 75.8952 232.293 75.8985 232.299 75.9028C232.305 75.907 232.312 75.9129 232.319 75.9207C232.327 75.9286 232.335 75.9389 232.341 75.9519C232.348 75.9652 232.353 75.9802 232.355 75.9966C232.357 76.0129 232.355 76.0283 232.352 76.0422C232.349 76.0557 232.344 76.0671 232.339 76.076C232.334 76.0849 232.329 76.092 232.325 76.0974C232.32 76.1028 232.316 76.1071 232.312 76.1105C232.305 76.117 232.298 76.1215 232.294 76.1243C232.289 76.1273 232.285 76.1295 232.282 76.131C232.279 76.1326 232.277 76.1339 232.274 76.1348C232.27 76.1367 232.266 76.1381 232.264 76.1391C232.258 76.141 232.253 76.1424 232.249 76.1435C232.242 76.1456 232.233 76.1477 232.223 76.1497C232.214 76.1519 232.202 76.1543 232.188 76.1569L232.137 75.8962ZM232.162 75.8938C232.626 75.8925 232.814 76.0513 233.169 76.2327L233.048 76.4693C232.66 76.2713 232.545 76.1583 232.163 76.1594L232.162 75.8938ZM233.171 76.2339C233.404 76.3585 233.534 76.6081 233.624 76.8501C233.671 76.974 233.71 77.1047 233.746 77.2283C233.783 77.3537 233.817 77.471 233.855 77.5761L233.605 77.6666C233.564 77.5522 233.527 77.4259 233.491 77.3033C233.455 77.1788 233.418 77.0568 233.376 76.943C233.288 76.7095 233.187 76.5435 233.046 76.4681L233.171 76.2339ZM233.856 77.5777C233.887 77.6684 233.943 77.7597 234.013 77.8576C234.048 77.9062 234.085 77.9548 234.124 78.0052C234.163 78.055 234.203 78.1069 234.241 78.1592C234.392 78.364 234.543 78.615 234.482 78.9179L234.222 78.8656C234.258 78.6837 234.174 78.5168 234.027 78.3163C233.991 78.2674 233.953 78.2186 233.914 78.1678C233.875 78.1176 233.835 78.0655 233.797 78.0126C233.722 77.9073 233.649 77.7916 233.605 77.665L233.856 77.5777Z" fill="#0A2FF1" mask="url(#path-19-inside-2_16970_145838)"/>
<path d="M230.654 80.6382C230.664 80.6649 230.674 80.6912 230.683 80.7168C230.688 80.7067 230.693 80.6966 230.698 80.6866C230.724 80.6349 230.755 80.58 230.785 80.5262C230.803 80.4943 230.82 80.4628 230.837 80.4326C230.882 80.3483 230.92 80.2695 230.94 80.1982C230.96 80.1268 230.96 80.0713 230.94 80.0279C230.92 79.9861 230.879 79.9525 230.811 79.9251C230.742 79.8978 230.656 79.8805 230.561 79.8655C230.53 79.8607 230.498 79.8562 230.466 79.8515C230.4 79.8421 230.333 79.8325 230.272 79.8205C230.259 79.818 230.246 79.8154 230.233 79.8125C230.312 79.9367 230.401 80.0962 230.481 80.2563C230.546 80.3868 230.607 80.52 230.654 80.6382ZM229.287 82.3682C229.416 82.3191 229.571 82.257 229.723 82.1896C229.853 82.1317 229.979 82.0704 230.083 82.0106C230.102 81.9996 230.12 81.9887 230.137 81.9781C230.058 81.9446 229.969 81.8868 229.884 81.8308C229.877 81.826 229.869 81.8211 229.862 81.8163C229.773 81.7579 229.688 81.7011 229.609 81.6632C229.567 81.6428 229.53 81.6295 229.499 81.6239C229.469 81.6183 229.448 81.6212 229.433 81.6278C229.42 81.6341 229.405 81.6476 229.39 81.6745C229.376 81.7016 229.363 81.7384 229.354 81.7843C229.335 81.8713 229.327 81.9773 229.319 82.0865C229.318 82.0933 229.318 82.1001 229.317 82.1069C229.31 82.1969 229.303 82.2903 229.287 82.3682ZM228.873 79.7508C228.878 79.6515 228.885 79.5477 228.904 79.466C228.887 79.4724 228.869 79.4794 228.851 79.487C228.74 79.5324 228.615 79.5956 228.49 79.6642C228.347 79.7424 228.207 79.8263 228.089 79.8976C228.157 79.9322 228.23 79.9816 228.3 80.0296C228.307 80.0339 228.313 80.0383 228.319 80.0427C228.408 80.1035 228.494 80.1627 228.574 80.202C228.663 80.246 228.721 80.2532 228.756 80.2369C228.79 80.2213 228.82 80.1737 228.841 80.0757C228.859 79.9868 228.865 79.8787 228.872 79.768C228.872 79.7622 228.872 79.7565 228.873 79.7508Z" fill="#3957F1" stroke="#0A2FF1" stroke-width="0.132813"/>
<path d="M227.934 78.1597C227.943 78.0961 227.943 78.0477 227.936 78.0143C227.934 78.0126 227.93 78.0083 227.92 78.0019C227.902 77.9899 227.873 77.9768 227.834 77.9632C227.755 77.9362 227.65 77.9122 227.539 77.8885C227.516 77.8836 227.493 77.8787 227.469 77.8738C227.382 77.8555 227.294 77.8372 227.221 77.818C227.218 77.8172 227.214 77.8163 227.211 77.8155C227.22 77.8314 227.228 77.8482 227.238 77.8656C227.298 77.9801 227.372 78.125 227.444 78.2706C227.516 78.4162 227.586 78.563 227.64 78.6814C227.667 78.7405 227.69 78.793 227.708 78.8349C227.711 78.8433 227.714 78.8517 227.718 78.8598C227.785 78.6898 227.845 78.5233 227.886 78.3779C227.909 78.2964 227.925 78.2227 227.934 78.1597ZM225.861 77.9326C225.851 77.9985 225.842 78.0659 225.828 78.1338L226.935 77.6526C226.854 77.6235 226.749 77.5725 226.64 77.5198C226.415 77.4102 226.173 77.2932 226.109 77.3511C225.924 77.4992 225.894 77.7072 225.861 77.9326ZM226.85 77.6905C226.845 77.6886 226.841 77.6866 226.836 77.6846C226.768 77.6553 226.689 77.6172 226.61 77.579C226.588 77.568 226.565 77.5569 226.542 77.546C226.44 77.4969 226.342 77.4518 226.264 77.4253C226.225 77.412 226.194 77.4046 226.171 77.4027C226.158 77.4016 226.152 77.4026 226.15 77.4031C226.027 77.5013 225.981 77.6301 225.951 77.7882C225.942 77.8381 225.935 77.8878 225.927 77.9399C225.922 77.9727 225.917 78.0066 225.912 78.042C225.906 78.0801 225.899 78.1189 225.89 78.1583C225.916 78.1447 225.944 78.1301 225.974 78.1146C226.09 78.0549 226.237 77.9821 226.384 77.9107C226.531 77.8393 226.679 77.7691 226.797 77.7149C226.815 77.7064 226.833 77.6982 226.85 77.6905Z" fill="#3957F1" stroke="#0A2FF1" stroke-width="0.132813"/>
<mask id="path-23-inside-3_16970_145838" fill="white">
<path d="M227.999 79.9998C227.871 79.7549 227.489 79.425 227.053 79.6754C227.445 79.4507 227.987 79.9769 227.999 79.9998Z"/>
</mask>
<path d="M227.999 79.9998C227.871 79.7549 227.489 79.425 227.053 79.6754C227.445 79.4507 227.987 79.9769 227.999 79.9998Z" fill="#3957F1"/>
<path d="M227.882 80.0615C227.829 79.9607 227.721 79.8388 227.583 79.771C227.452 79.7063 227.295 79.6901 227.12 79.7906L226.987 79.5602C227.248 79.4104 227.5 79.4338 227.7 79.5327C227.895 79.6285 228.041 79.794 228.117 79.9381L227.882 80.0615ZM226.987 79.5602C227.249 79.4098 227.542 79.5194 227.734 79.6295C227.836 79.6875 227.924 79.7533 227.987 79.806C228.018 79.8324 228.044 79.856 228.063 79.8744C228.073 79.8835 228.081 79.8918 228.088 79.899C228.091 79.9025 228.095 79.9064 228.098 79.9104C228.099 79.9115 228.108 79.9221 228.116 79.936L227.883 80.0636C227.887 80.0717 227.892 80.0773 227.892 80.0784C227.894 80.0804 227.895 80.0817 227.895 80.082C227.896 80.0828 227.896 80.0825 227.894 80.0809C227.891 80.0779 227.886 80.0728 227.879 80.0658C227.865 80.0519 227.843 80.0324 227.816 80.0098C227.762 79.9643 227.687 79.9084 227.603 79.8601C227.423 79.7575 227.249 79.7163 227.12 79.7906L226.987 79.5602Z" fill="#0A2FF1" mask="url(#path-23-inside-3_16970_145838)"/>
<mask id="path-25-inside-4_16970_145838" fill="white">
<path d="M234.676 82.9459C234.664 82.8548 234.441 81.8916 234.054 81.6755C233.692 81.4754 231.324 80.7298 231.217 80.7023C231.95 80.8895 233.775 81.5192 234.054 81.6755C234.309 81.8177 234.643 82.7224 234.676 82.9459Z"/>
</mask>
<path d="M234.676 82.9459C234.664 82.8548 234.441 81.8916 234.054 81.6755C233.692 81.4754 231.324 80.7298 231.217 80.7023C231.95 80.8895 233.775 81.5192 234.054 81.6755C234.309 81.8177 234.643 82.7224 234.676 82.9459Z" fill="#3957F1"/>
<path d="M234.054 81.6755L234.118 81.5593L234.119 81.5596L234.054 81.6755ZM234.054 81.6755L233.99 81.7915L233.989 81.7914L234.054 81.6755ZM234.544 82.9626C234.544 82.9626 234.544 82.9622 234.544 82.9612C234.544 82.9602 234.544 82.959 234.543 82.9573C234.543 82.954 234.542 82.9497 234.541 82.9444C234.539 82.9338 234.536 82.9199 234.532 82.9031C234.525 82.8695 234.514 82.8254 234.5 82.7738C234.472 82.6705 234.433 82.5391 234.382 82.4046C234.331 82.2695 234.27 82.1345 234.2 82.0223C234.129 81.9076 234.057 81.8293 233.99 81.7915L234.119 81.5596C234.245 81.6298 234.346 81.753 234.426 81.8825C234.508 82.0145 234.576 82.1666 234.63 82.3106C234.738 82.5963 234.8 82.8703 234.808 82.9292L234.544 82.9626ZM233.99 81.7918C233.911 81.748 233.706 81.6676 233.428 81.5679C233.155 81.47 232.823 81.3576 232.498 81.2503C231.845 81.0348 231.232 80.8433 231.184 80.831L231.249 80.5736C231.309 80.5888 231.933 80.7839 232.581 80.9981C232.907 81.1056 233.242 81.2188 233.518 81.3179C233.789 81.4152 234.016 81.503 234.118 81.5593L233.99 81.7918ZM231.249 80.5736C231.622 80.6686 232.266 80.8744 232.849 81.0749C233.141 81.1754 233.42 81.275 233.643 81.3596C233.863 81.4426 234.039 81.5148 234.119 81.5597L233.989 81.7914C233.93 81.7581 233.774 81.693 233.549 81.6081C233.329 81.5247 233.053 81.426 232.763 81.3261C232.18 81.1259 231.545 80.9232 231.184 80.831L231.249 80.5736ZM234.119 81.5596C234.215 81.6131 234.298 81.7227 234.367 81.8323C234.439 81.9479 234.509 82.0876 234.57 82.2268C234.69 82.501 234.788 82.7964 234.807 82.9265L234.545 82.9654C234.531 82.8719 234.445 82.6033 234.327 82.3337C234.268 82.201 234.204 82.0739 234.141 81.9729C234.075 81.8659 234.021 81.8091 233.99 81.7915L234.119 81.5596Z" fill="#0A2FF1" mask="url(#path-25-inside-4_16970_145838)"/>
</g>
<rect x="0.0893572" y="0.182612" width="5.71251" height="5.71251" transform="matrix(0.945916 0.324411 -0.324288 0.945958 215.064 99.9809)" fill="white" stroke="#0A2FF1" stroke-width="0.287494"/>
<path d="M247 94L267.81 101.137" stroke="#0A2FF1" stroke-width="0.574988" stroke-linecap="round" stroke-linejoin="round"/>
<path d="M249 89L269.81 96.137" stroke="#0A2FF1" stroke-width="0.574988" stroke-linecap="round" stroke-linejoin="round"/>
<path d="M251 83L271.81 90.137" stroke="#0A2FF1" stroke-width="0.574988" stroke-linecap="round" stroke-linejoin="round"/>
<path d="M221 122L256.945 134.328" stroke="#0A2FF1" stroke-width="0.287494" stroke-linecap="round" stroke-linejoin="round"/>
<path d="M214 138L249.945 150.328" stroke="#0A2FF1" stroke-width="0.287494" stroke-linecap="round" stroke-linejoin="round"/>
<path d="M223 115L258.945 127.328" stroke="#0A2FF1" stroke-width="0.287494" stroke-linecap="round" stroke-linejoin="round"/>
<path d="M217 131L252.945 143.328" stroke="#0A2FF1" stroke-width="0.287494" stroke-linecap="round" stroke-linejoin="round"/>
<path d="M226 107L261.945 119.328" stroke="#0A2FF1" stroke-width="0.287494" stroke-linecap="round" stroke-linejoin="round"/>
<path d="M36.5014 171.536C39.4609 169.558 42.9404 168.503 46.4998 168.503C51.2714 168.508 55.8462 170.406 59.2202 173.78C62.5944 177.154 64.4921 181.729 64.4971 186.501C64.497 190.06 63.4415 193.539 61.464 196.499C59.4865 199.458 56.6757 201.765 53.3872 203.127C50.0986 204.489 46.48 204.846 42.9889 204.151C39.4979 203.457 36.2911 201.743 33.7742 199.226C31.2572 196.709 29.5432 193.502 28.8487 190.011C28.1543 186.52 28.5107 182.901 29.8729 179.613C31.235 176.324 33.5418 173.514 36.5014 171.536Z" fill="white" stroke="#0A2FF1" stroke-width="1.00585"/>
<path d="M37.9209 194.794V182.657H40.9856V194.794H37.9209Z" fill="#0A2FF1" stroke="#0A2FF1" stroke-width="1.00585"/>
<path d="M39.4391 179.928L39.4371 179.928C39.1854 179.927 38.9364 179.877 38.7043 179.779C38.4722 179.682 38.2615 179.54 38.0842 179.361C37.907 179.183 37.7667 178.971 37.6713 178.738C37.5759 178.505 37.5273 178.256 37.5283 178.004L37.5283 178.002C37.5283 177.621 37.6417 177.248 37.854 176.931C38.0663 176.613 38.368 176.367 38.7208 176.221C39.0736 176.076 39.4617 176.039 39.8357 176.114C40.2097 176.19 40.5528 176.375 40.8216 176.646C41.0903 176.917 41.2725 177.261 41.3451 177.636C41.4177 178.01 41.3774 178.398 41.2293 178.75C41.0812 179.101 40.8319 179.401 40.5132 179.611C40.1945 179.821 39.8206 179.931 39.4391 179.928Z" fill="#0A2FF1" stroke="#0A2FF1" stroke-width="1.00585"/>
<path d="M44.5742 194.839V182.702H47.4757V183.956V185.737L48.4073 184.219C48.7758 183.618 49.294 183.124 49.911 182.784C50.5281 182.444 51.2229 182.27 51.9274 182.279L51.9274 182.279H51.934C53.2337 182.279 54.2921 182.673 55.0263 183.422C55.7606 184.171 56.2313 185.337 56.2313 186.999V194.791H53.1858V188.401C53.1858 187.424 53.0411 186.559 52.6037 185.931C52.1389 185.262 51.411 184.95 50.4748 184.95C49.5381 184.95 48.7639 185.27 48.2357 185.913C47.7206 186.54 47.495 187.406 47.4949 188.4C47.4949 188.4 47.4949 188.4 47.4949 188.401L47.4771 194.839H44.5742Z" fill="#0A2FF1" stroke="#0A2FF1" stroke-width="1.00585"/>
<path d="M358 196C355.374 196 352.773 195.483 350.346 194.478C347.92 193.473 345.715 191.999 343.858 190.142C342.001 188.285 340.527 186.08 339.522 183.654C338.517 181.227 338 178.626 338 176C338 170.696 340.107 165.609 343.858 161.858C347.609 158.107 352.696 156 358 156C363.304 156 368.391 158.107 372.142 161.858C375.893 165.609 378 170.696 378 176C378 178.626 377.483 181.227 376.478 183.654C375.473 186.08 373.999 188.285 372.142 190.142C370.285 191.999 368.08 193.473 365.654 194.478C363.227 195.483 360.626 196 358 196Z" fill="white"/>
<path d="M355.061 183.581C355.637 183.473 356.181 183.233 356.651 182.881C357.052 182.579 357.392 182.202 357.651 181.771C358.073 181.105 358.292 180.33 358.281 179.541C358.299 178.816 358.108 178.101 357.731 177.481C357.345 176.898 356.774 176.461 356.111 176.241C356.517 176.052 356.88 175.784 357.181 175.451C357.635 174.86 357.866 174.126 357.831 173.381C357.849 172.617 357.621 171.866 357.181 171.241C356.739 170.721 356.178 170.314 355.547 170.054C354.915 169.795 354.231 169.691 353.551 169.751H346.771V183.751H353.061C353.731 183.765 354.402 183.708 355.061 183.581ZM349.561 172.181H352.611C353.172 172.164 353.733 172.239 354.271 172.401C354.518 172.507 354.724 172.69 354.859 172.922C354.994 173.154 355.051 173.424 355.021 173.691C355.045 173.93 355.005 174.171 354.905 174.389C354.805 174.607 354.648 174.794 354.451 174.931C353.998 175.178 353.486 175.295 352.971 175.271H349.561V172.181ZM349.561 181.341V177.601H353.011C353.488 177.581 353.965 177.659 354.411 177.831C354.698 177.959 354.94 178.172 355.101 178.443C355.262 178.713 355.335 179.027 355.311 179.341C355.348 179.692 355.279 180.047 355.113 180.358C354.948 180.67 354.692 180.925 354.381 181.091C353.931 181.277 353.446 181.362 352.961 181.341H349.561Z" fill="#04146C"/>
<path d="M360.591 182.852C361.62 183.691 362.913 184.141 364.241 184.122C364.963 184.168 365.687 184.057 366.362 183.796C367.037 183.536 367.647 183.132 368.151 182.612C368.679 182.114 369.03 181.458 369.151 180.742H366.381C366.247 181.013 366.06 181.254 365.831 181.452C365.4 181.786 364.865 181.956 364.321 181.932C363.794 181.946 363.274 181.811 362.821 181.542C362.468 181.3 362.183 180.972 361.994 180.588C361.805 180.205 361.718 179.779 361.741 179.352H369.291C369.319 178.664 369.292 177.975 369.211 177.292C369.096 176.523 368.812 175.789 368.381 175.142C367.94 174.474 367.32 173.943 366.591 173.612C365.821 173.28 364.989 173.113 364.151 173.122C363.467 173.095 362.785 173.209 362.146 173.457C361.508 173.705 360.928 174.081 360.441 174.562C359.952 175.121 359.579 175.771 359.342 176.474C359.105 177.178 359.01 177.921 359.061 178.662C358.974 179.431 359.067 180.21 359.333 180.937C359.598 181.664 360.029 182.32 360.591 182.852ZM362.531 175.952C362.746 175.748 363.001 175.59 363.279 175.488C363.558 175.387 363.855 175.344 364.151 175.362C364.738 175.346 365.31 175.545 365.761 175.922C365.986 176.132 366.166 176.386 366.289 176.668C366.413 176.95 366.478 177.254 366.481 177.562H361.811C361.871 176.962 362.124 176.397 362.531 175.952Z" fill="#04146C"/>
<path d="M367.021 170.552H360.921V171.972H367.021V170.552Z" fill="#04146C"/>
<path d="M257.273 174.362C246.77 157.409 239.768 167.298 237.58 174.362V190.439L273.319 209.438L288.635 248.168C280.855 264.976 263.691 300.198 257.273 306.629C249.25 314.667 231.745 311.013 222.263 288.36C212.781 265.706 213.374 230.575 214.833 215.959C215.537 208.9 221.125 174.362 230.879 156.038C236.714 145.076 243.278 137.867 252.896 134.901C268.562 130.071 311.109 126.808 318.539 163.401C328.444 212.179 332 205.054 346.848 221.075C361.697 237.096 351.818 261.266 329.344 267.843C291.125 279.027 288.635 210.169 296.658 205.054C304.681 199.938 302.493 169.247 288.635 185.323C274.777 201.4 270.401 195.554 257.273 174.362Z" fill="#0A2FF1"/>
<path d="M227.42 214.642C221.397 189.976 230.138 160.96 245.75 163.786L251.8 182.39L294.229 221.855L291.217 266.825L253.799 288.441C250.44 287.73 259.617 307.152 249.053 303.635C235.847 299.238 223.671 279.187 230.138 261.786C237.093 243.07 234.948 245.474 227.42 214.642Z" fill="#15163D"/>
<path d="M280.582 228.803C229.421 246.341 228.586 188.578 240.361 167.807C252.031 153.192 260.339 178.795 271.724 185.345C282.559 191.578 286.417 184.957 291.522 179.842C296.628 174.727 303.921 179.842 303.921 189.342C303.921 198.842 294.44 201.034 296.628 228.803C298.378 251.017 323.614 255.11 336.013 254.379C327.261 268.02 302.754 294.863 274.747 293.109C246.739 291.355 254.324 266.558 261.618 254.379C267.939 253.648 280.582 251.017 280.582 246.341L280.582 228.803Z" fill="#F8F8F8"/>
<path d="M320.591 254.118C288.499 293.286 269.779 270.438 264.43 254.118C253.343 249.441 248.627 256.066 247.654 259.964L242.549 336.693L242.549 366.654L259.505 367L264.43 366.654C266.618 365.923 278.142 364.9 306.733 366.654C335.324 368.407 359.491 361.051 368 357.154C365.326 330.603 358.226 273.994 351.225 259.964C344.223 245.933 327.885 250.22 320.591 254.118Z" fill="#8A9AF1"/>
<path d="M269.535 340.918V365.764L264.481 366.501L259.504 367C268.986 364.744 265.453 350.661 264.481 340.918C245.071 320.599 259.81 301.701 264.429 292.688C254.51 317.826 259.324 330.688 269.535 340.918Z" fill="#0A2FF1"/>
<path d="M341.013 346.764L300.169 356.264L334.449 341.649L329.344 305.111L334.449 292.688L341.013 346.764Z" fill="#0A2FF1"/>
<path d="M114.113 223.202C160.528 230.172 174.671 185.835 153.194 159.432C153.194 159.432 124.908 171.385 114.113 172.386C108.424 172.913 111.555 192.433 110.241 195.3L100.812 190.319C100.128 180.352 98.4742 179.011 95.5742 176.865C92.8762 174.869 85.6216 177.865 92.4312 190.319C97.0326 198.734 99.5274 195.476 97.2244 223.202C94.9903 250.098 68.8207 249.468 55.7703 248.738C64.9823 262.358 90.776 289.159 120.255 287.408C149.733 285.657 141.749 260.898 134.073 248.738C127.419 248.009 114.113 245.116 114.113 237.644V223.202Z" fill="#161485"/>
<path d="M113.344 223.209C159.758 230.179 173.901 185.842 152.425 159.439C152.425 159.439 125.533 156.349 111.572 166.806C111.57 166.807 111.568 166.807 111.567 166.808L96.4549 163.819C95.7707 153.853 97.7046 179.018 94.8046 176.872C92.1067 174.876 84.8521 177.872 91.6617 190.326C96.263 198.741 94.2481 198.301 93.0504 226.09C91.6617 258.308 68.0511 249.475 55.0008 248.745C64.2128 262.365 90.0065 289.166 119.485 287.415C148.963 285.664 140.98 260.905 133.303 248.745C126.65 248.016 113.344 246.76 113.344 239.288V223.209Z" fill="white"/>
<path d="M42.7607 258.542C46.9519 239.703 62.7683 239.633 79.533 243.599C79.533 243.599 94.1145 249.532 119.349 243.599C150.684 236.233 149.66 259.659 150.684 263.531V336.8V354.505L125.112 358.214C107.823 358.214 112.773 357.959 82.6764 359.702C52.5793 361.444 32.9573 355.151 23.9998 351.279C29.7627 321.038 39.367 273.796 42.7607 258.542Z" fill="#04146C"/>
<path d="M129.291 286.419C126.229 326.553 127.277 339.164 127.277 356.662L131.991 356.164C128.767 329.226 130.338 329.981 129.291 286.419Z" fill="white"/>
<path d="M53.501 345.594L58.501 287.068L53.501 316.036L49.0011 349.095L53.501 345.594Z" fill="white"/>
<path d="M100.995 273.535C109.848 278.46 112.804 255.565 113.176 243.501L88.1719 241.813C88.7574 250.335 92.1417 268.609 100.995 273.535Z" fill="white"/>
<path d="M113.529 240.073C128.501 250.552 135.96 271.291 111.501 258.055L113.529 240.073Z" fill="#8A9AF1"/>
<path d="M90.5466 239.625C75.5005 250.052 63.8336 268.243 91.1709 257.988L90.5466 239.625Z" fill="#8A9AF1"/>
<path d="M93.266 140.208C103.963 131.312 112.578 129 126.281 129C139.985 129 151.089 136.459 159.571 137.107C168.053 137.756 173.914 130.277 179.135 140.208C184.356 150.14 164.771 166.901 151.728 169.374C138.685 171.847 120.421 168.137 115.199 167.509C110.197 167.183 105.177 167.183 100.174 167.509C100.174 167.509 104.096 179.305 100.174 183.034C96.253 186.764 95.6137 189.236 95.6137 191.709C95.3899 194.438 94.9553 197.148 94.3136 199.816L93.266 206.215L88.3314 197.746C81.5218 189.776 79.525 182.217 77.9888 175.008C76.0494 163.841 82.5694 149.104 93.266 140.208Z" fill="#0A2FF1"/>
<path fill-rule="evenodd" clip-rule="evenodd" d="M93.6639 199.915C92.1743 196.969 91.0666 193.846 90.3774 190.612C88.438 179.444 98.2202 168.317 98.2202 168.317L110.624 156.399C110.624 156.399 124.967 144.604 138.67 144.604C146.739 144.604 153.906 147.189 160.167 149.448C164.54 151.026 168.471 152.444 171.959 152.711C173.522 152.83 174.995 152.674 176.392 152.402C170.953 160.226 159.806 167.778 151.385 169.374C140.505 171.437 125.992 169.198 118.447 168.034C116.947 167.802 115.723 167.614 114.857 167.509C109.854 167.183 104.834 167.183 99.8318 167.509C99.8318 167.509 103.753 179.305 99.8318 183.035C95.9104 186.764 95.2712 189.237 95.2712 191.709C95.0474 194.438 94.6127 197.148 93.971 199.817L93.6639 199.915Z" fill="#04146C"/>
<path d="M109.547 86.4589C103.478 86.5957 97.6742 89.2682 93.3624 93.9394C89.0408 98.6211 86.5654 104.935 86.4569 111.546L109.547 111.507L109.547 86.4589Z" stroke="#3957F1" stroke-width="0.9064"/>
<path d="M177 281L188.5 288L200 295L200 281L200 267L188.5 274L177 281Z" fill="#3FFFF3"/>
<path d="M215.503 321C123.882 295.093 50.9171 314 18 335.087V375H369.116L415 321C387.197 336.718 332.209 354 215.503 321Z" fill="white"/>
<rect x="2.83509" y="19.8351" width="399.33" height="401.33" rx="199.665" stroke="#0A2FF1" stroke-width="1.67018"/>
<path d="M142 50C148.365 50 154.499 47.6884 159 43C163.501 38.3116 166 31.6304 166 25C166 18.3696 163.501 11.6884 159 7C154.499 2.31159 148.365 1.66135e-06 142 0V50Z" fill="#3FFFF3"/>
<rect y="300" width="123" height="124" rx="61.5" fill="#EFF2FF"/>
</svg>
