<svg width="202" height="33" viewBox="0 0 202 33" fill="none" xmlns="http://www.w3.org/2000/svg">
<path d="M18.3355 24.6637H4.77273C5.42512 27.2035 7.2106 28.5077 10.0605 28.5077C12.0177 28.5077 14.3525 27.7526 15.8977 26.6887L17.7518 29.9835C15.4513 31.6309 12.8417 32.489 9.85449 32.489C6.66122 32.489 4.25769 31.5623 2.54088 29.7433C0.858405 27.9243 0 25.6591 0 23.0506C0 20.3049 0.858405 18.0397 2.60955 16.255C4.3607 14.4703 6.62689 13.578 9.40812 13.578C12.0177 13.578 14.2152 14.4017 15.932 16.0491C17.6145 17.6622 18.4729 19.8588 18.4729 22.6731C18.5072 23.2566 18.4385 23.943 18.3355 24.6637ZM4.77273 21.1973H13.9748C13.5285 18.8291 11.846 17.422 9.44246 17.422C7.10759 17.3876 5.32211 18.8291 4.77273 21.1973Z" fill="white"/>
<path d="M33.9243 6.85092H38.594V32.077H34.0273V29.8462C32.5508 31.5965 30.6967 32.4889 28.4305 32.4889C25.8896 32.4889 23.7264 31.5965 22.0096 29.8118C20.3272 27.9928 19.4688 25.7276 19.4688 23.0162C19.4688 20.3392 20.3272 18.074 22.0096 16.2549C23.7264 14.4359 25.8553 13.5436 28.4305 13.5436C30.628 13.5436 32.4478 14.4016 33.9586 16.0833V6.85092H33.9243ZM32.7569 19.3095C31.8298 18.2799 30.628 17.7994 29.1516 17.7994C27.6408 17.7994 26.4733 18.3142 25.5119 19.3095C24.5505 20.3048 24.1041 21.5404 24.1041 23.0162C24.1041 24.5264 24.5848 25.7276 25.5119 26.7572C26.4733 27.7526 27.6751 28.2674 29.1516 28.2674C30.6624 28.2674 31.8298 27.7526 32.7569 26.7572C33.6839 25.7276 34.1646 24.492 34.1646 23.0162C34.1646 21.5404 33.6839 20.3048 32.7569 19.3095Z" fill="white"/>
<path d="M41.3066 24.4233V13.9896H45.9764V24.4576C45.9764 26.7571 47.3498 28.2329 49.5817 28.2329C51.8479 28.2329 53.187 26.7228 53.187 24.4576V13.9896H57.8567V24.4576C57.8567 29.5371 54.7321 32.5231 49.5473 32.5231C44.4656 32.4887 41.3066 29.5028 41.3066 24.4233Z" fill="white"/>
<path d="M62.3208 29.8118C60.5353 28.0614 59.6426 25.7619 59.6426 23.0162C59.6426 20.2705 60.5353 17.971 62.3551 16.2206C64.175 14.4359 66.5098 13.5435 69.3597 13.5435C73.0337 13.5435 76.2956 15.3626 77.8064 18.5888L74.0638 20.648C72.965 18.829 71.4199 17.9023 69.4627 17.9023C67.9519 17.9023 66.7502 18.4172 65.7888 19.4125C64.8273 20.3735 64.3123 21.609 64.3123 23.0505C64.3123 24.5607 64.793 25.7619 65.7544 26.7572C66.7158 27.7182 67.9519 28.233 69.3597 28.233C71.2482 28.233 73.171 27.1004 73.9608 25.5217L77.7378 27.7525C76.1926 30.6698 72.965 32.5232 69.2224 32.5232C66.4068 32.4546 64.1063 31.5622 62.3208 29.8118Z" fill="white"/>
<path d="M92.9833 13.9898H97.447V32.0771H92.9833V29.9835C91.4382 31.6653 89.481 32.5233 87.2148 32.5233C84.6396 32.5233 82.4764 31.6309 80.7596 29.8119C79.0428 27.9929 78.2188 25.6934 78.2188 22.982C78.2188 20.2706 79.0772 18.0054 80.7596 16.255C82.4421 14.4703 84.6053 13.578 87.1805 13.578C89.4467 13.578 91.3695 14.436 92.949 16.1864V13.9898H92.9833ZM91.6099 19.3096C90.6485 18.28 89.4467 17.7995 88.0046 17.7995C86.4938 17.7995 85.3263 18.3143 84.3649 19.3096C83.4379 20.3393 82.9571 21.5748 82.9571 22.982C82.9571 24.4578 83.4379 25.659 84.3993 26.6887C85.3607 27.7183 86.5624 28.1988 88.0046 28.1988C89.481 28.1988 90.6485 27.684 91.6099 26.6887C92.5713 25.659 93.0863 24.4235 93.0863 22.982C93.052 21.5748 92.5713 20.3393 91.6099 19.3096Z" fill="white"/>
<path d="M102.047 29.8118C100.262 28.0614 99.3691 25.7619 99.3691 23.0162C99.3691 20.2705 100.262 17.971 102.082 16.2206C103.902 14.4359 106.236 13.5435 109.086 13.5435C112.76 13.5435 116.022 15.3626 117.533 18.5888L113.79 20.648C112.692 18.829 111.146 17.9023 109.189 17.9023C107.678 17.9023 106.477 18.4172 105.515 19.4125C104.554 20.3735 104.039 21.609 104.039 23.0505C104.039 24.5607 104.52 25.7619 105.481 26.7572C106.442 27.7182 107.678 28.233 109.086 28.233C110.975 28.233 112.898 27.1004 113.687 25.5217L117.464 27.7525C115.919 30.6698 112.692 32.5232 108.949 32.5232C106.133 32.4546 103.867 31.5622 102.047 29.8118Z" fill="white"/>
<path d="M119.387 11.1412C118.288 10.0429 118.288 8.12091 119.387 7.05696C120.485 5.95868 122.408 5.95868 123.507 7.05696C124.606 8.12091 124.606 10.0429 123.507 11.1412C122.408 12.2051 120.485 12.2051 119.387 11.1412ZM123.782 32.0771H119.112V13.9898H123.782V32.0771Z" fill="white"/>
<path d="M128.382 16.2551C130.202 14.4018 132.537 13.4751 135.353 13.4751C138.168 13.4751 140.503 14.4018 142.323 16.2551C144.143 18.0742 145.036 20.3394 145.036 22.9821C145.036 25.6592 144.143 27.9244 142.323 29.7434C140.503 31.5624 138.168 32.4891 135.353 32.4891C132.537 32.4891 130.202 31.5624 128.382 29.7434C126.563 27.9244 125.67 25.6592 125.67 22.9821C125.67 20.3394 126.563 18.1085 128.382 16.2551ZM135.353 28.1989C136.795 28.1989 137.928 27.6841 138.889 26.6888C139.851 25.6592 140.366 24.4236 140.366 23.0164C140.366 21.5749 139.851 20.3737 138.889 19.3784C137.928 18.383 136.761 17.8682 135.353 17.8682C133.911 17.8682 132.743 18.383 131.782 19.3784C130.82 20.3737 130.34 21.6092 130.34 23.0164C130.34 24.4579 130.82 25.6592 131.782 26.6888C132.743 27.6841 133.945 28.1989 135.353 28.1989ZM133.018 11.2785L135.078 5.44394H140.297L137.173 11.2785H133.018Z" fill="white"/>
<path d="M147.027 32.0773V13.99H151.594V16.4955C152.555 14.7451 154.719 13.4752 157.26 13.4752C159.217 13.4752 160.899 14.1273 162.273 15.4315C163.646 16.7357 164.333 18.5891 164.333 20.9915V32.043H159.663V22.2957C159.663 19.4128 158.152 17.7997 155.852 17.7997C153.345 17.7997 151.697 19.6873 151.697 22.3644V32.043H147.027V32.0773Z" fill="white"/>
<path d="M196.438 0.57016H176.008C172.952 0.57016 170.445 3.07561 170.445 6.1302V29.0911C170.445 30.7385 171.784 32.1114 173.467 32.1114H190.223C198.91 32.1114 202 25.0412 202 21.1629V6.1302C202 3.04129 199.528 0.57016 196.438 0.57016ZM180.643 25.9336H176.523V6.67934H180.643V25.9336ZM197.537 10.6606H192.18V25.9679H188.06V10.6606H182.738V6.67934H197.571V10.6606H197.537Z" fill="white"/>
</svg>
