<svg width="114" height="31" viewBox="0 0 114 31" fill="none" xmlns="http://www.w3.org/2000/svg">
<g clip-path="url(#clip0_1614_21699)">
<path d="M21.9189 13.2201H12.3558C12.1091 13.2201 11.9089 13.4213 11.9089 13.6689V18.3614C11.9089 18.609 12.1091 18.8105 12.3558 18.8105H16.0864V24.6406C16.0864 24.6406 15.2487 24.9271 12.9328 24.9271C10.2005 24.9271 6.3837 23.9252 6.3837 15.5018C6.3837 7.07655 10.3581 5.96804 14.0894 5.96804C17.3193 5.96804 18.7108 6.53882 19.5961 6.81375C19.8743 6.89937 20.1317 6.62135 20.1317 6.37353L21.1985 1.83959C21.1985 1.72377 21.1594 1.58417 21.0276 1.48927C20.6682 1.23194 18.4745 0 12.9328 0C6.54863 0 0 2.72598 0 15.8303C0 28.935 7.49769 30.8878 13.8157 30.8878C19.0471 30.8878 22.2205 28.6441 22.2205 28.6441C22.3514 28.5716 22.3656 28.3882 22.3656 28.3041V13.6689C22.3656 13.4213 22.1656 13.2201 21.9189 13.2201ZM71.1771 1.64029C71.1771 1.39058 70.9799 1.18914 70.7332 1.18914H65.3486C65.1026 1.18914 64.9026 1.39058 64.9026 1.64029C64.9026 1.64148 64.904 12.084 64.904 12.084H56.5108V1.64029C56.5108 1.39058 56.3127 1.18914 56.0665 1.18914H50.6821C50.4371 1.18914 50.2373 1.39058 50.2373 1.64029V29.9187C50.2373 30.1681 50.4371 30.3712 50.6821 30.3712H56.0665C56.3127 30.3712 56.5108 30.1681 56.5108 29.9187V17.823H64.904C64.904 17.823 64.8893 29.9177 64.8893 29.9187C64.8893 30.1681 65.0891 30.3712 65.3353 30.3712H70.7328C70.9794 30.3712 71.1766 30.1681 71.1771 29.9187V1.64029ZM32.0626 5.42103C32.0626 3.47513 30.508 1.90262 28.5903 1.90262C26.6744 1.90262 25.1187 3.47513 25.1187 5.42103C25.1187 7.36479 26.6744 8.94159 28.5903 8.94159C30.508 8.94159 32.0626 7.36479 32.0626 5.42103ZM31.6353 23.9682V10.9148C31.6353 10.667 31.436 10.4644 31.1898 10.4644H25.8222C25.576 10.4644 25.3556 10.7193 25.3556 10.9672V29.6687C25.3556 30.2183 25.6969 30.3817 26.1386 30.3817H30.9746C31.5052 30.3817 31.6353 30.1203 31.6353 29.6599V23.9682ZM91.7568 10.4644H86.4134C86.1684 10.4644 85.9689 10.667 85.9689 10.9165V24.7823C85.9689 24.7823 84.6115 25.779 82.6847 25.779C80.7582 25.779 80.2468 24.9017 80.2468 23.0084V10.9165C80.2468 10.667 80.0478 10.4644 79.8025 10.4644H74.3795C74.1347 10.4644 73.9342 10.667 73.9342 10.9165V23.924C73.9342 29.5477 77.0572 30.9235 81.3534 30.9235C84.8779 30.9235 87.7196 28.9693 87.7196 28.9693C87.7196 28.9693 87.8549 29.999 87.9161 30.1213C87.9774 30.2431 88.1369 30.366 88.3092 30.366L91.7592 30.3508C92.004 30.3508 92.2045 30.1477 92.2045 29.8994L92.2028 10.9165C92.2028 10.667 92.0031 10.4644 91.7568 10.4644ZM104.068 25.7897C102.215 25.7331 100.958 24.8891 100.958 24.8891V15.9339C100.958 15.9339 102.198 15.171 103.719 15.0345C105.644 14.8616 107.498 15.445 107.498 20.0517C107.498 24.9095 106.661 25.8682 104.068 25.7897ZM106.176 9.85699C103.141 9.85699 101.077 11.2159 101.077 11.2159V1.64029C101.077 1.39058 100.878 1.18914 100.632 1.18914H95.2325C94.987 1.18914 94.7874 1.39058 94.7874 1.64029V29.9187C94.7874 30.1681 94.987 30.3712 95.2332 30.3712H98.9796C99.1484 30.3712 99.2761 30.284 99.3704 30.131C99.4635 29.9791 99.5979 28.8273 99.5979 28.8273C99.5979 28.8273 101.806 30.9273 105.986 30.9273C110.893 30.9273 113.707 28.4292 113.707 19.7125C113.707 10.9959 109.213 9.85699 106.176 9.85699ZM47.1328 10.4159H43.0937C43.0937 10.4159 43.0875 5.06168 43.0875 5.06049C43.0875 4.85786 42.9835 4.75654 42.7501 4.75654H37.2458C37.0318 4.75654 36.9169 4.85096 36.9169 5.0574V10.5916C36.9169 10.5916 34.1585 11.2599 33.9721 11.3139C33.7863 11.3679 33.6495 11.5399 33.6495 11.7449V15.2226C33.6495 15.4728 33.8486 15.6745 34.0948 15.6745H36.9169V24.0408C36.9169 30.2549 41.26 30.8655 44.1909 30.8655C45.53 30.8655 47.1319 30.4338 47.3963 30.3358C47.5563 30.2768 47.6492 30.1106 47.6492 29.9303L47.6537 26.1046C47.6537 25.8551 47.4437 25.6532 47.2072 25.6532C46.9719 25.6532 46.3698 25.7493 45.7499 25.7493C43.766 25.7493 43.0937 24.8235 43.0937 23.625C43.0937 22.4276 43.0935 15.6745 43.0935 15.6745H47.1328C47.379 15.6745 47.5783 15.4728 47.5783 15.2226V10.8666C47.5783 10.6171 47.379 10.4159 47.1328 10.4159Z" fill="#11110F"/>
</g>
<defs>
<clipPath id="clip0_1614_21699">
<rect width="113.707" height="30.9816" fill="white"/>
</clipPath>
</defs>
</svg>
