<svg width="136" height="42" viewBox="0 0 136 42" fill="none" xmlns="http://www.w3.org/2000/svg">
<path d="M79.1227 28.8328C79.0757 28.711 78.9459 28.6407 78.8187 28.6696L78.7793 28.6809C78.4027 28.7613 78.1126 28.7386 77.9091 28.603C77.6203 28.4109 77.4804 27.9764 77.4804 27.2756V20.9426C77.4804 18.4687 75.9869 17.2142 73.038 17.2142C70.3982 17.2142 68.3297 18.4474 68.3297 20.0221C68.3297 20.8321 68.8296 21.4173 69.5675 21.5052C70.0496 21.563 70.5102 21.347 70.8435 20.9992C71.4923 20.3235 71.4096 19.5186 70.6221 18.6558C71.0877 18.1749 71.9121 17.891 72.8522 17.891C74.3839 17.891 75.0378 18.7877 75.0378 20.8899V22.491C74.6791 22.6003 74.3432 22.7033 73.7275 22.8464C72.4871 23.134 70.785 23.517 69.5013 24.2165C68.4416 24.7904 67.9035 25.6958 67.9035 26.9077C67.9035 28.2275 68.7813 29.7684 71.2544 29.7684C72.6398 29.7684 73.8801 29.1204 75.1536 27.729C75.2643 29.1744 75.8189 29.7169 77.1649 29.7169C77.8124 29.7169 78.3302 29.5675 78.9459 29.2736C79.1126 29.1932 79.1914 29.0024 79.1228 28.8328H79.1227ZM75.0378 26.8976C74.7376 27.3108 73.7555 28.5402 72.5316 28.5402C70.8791 28.5402 70.5318 27.3949 70.5318 26.4343C70.5318 24.8545 71.7581 24.1236 75.0378 23.3236V26.8976ZM106.73 29.8224C103.227 29.8224 100.584 27.1124 100.584 23.5183C100.584 19.9995 103.341 17.1363 106.73 17.1363C110.161 17.1363 112.85 19.8928 112.85 23.4141C112.85 27.3723 109.674 29.8224 106.73 29.8224ZM106.598 17.8119C105.084 17.8119 103.345 18.4549 103.345 23.4655C103.345 27.2882 104.487 29.1455 106.837 29.1455C109.085 29.1455 110.089 27.3949 110.089 23.4655C110.089 19.6617 108.946 17.8119 106.598 17.8119V17.8119ZM52.5649 17.3624C52.5649 20.2783 51.8373 21.8832 48.1149 21.8832H46.1418V13.0751H48.195C52.0459 13.0751 52.5649 15.2426 52.5649 17.3624ZM46.1418 27.2756V22.6932H47.9292C50.5956 22.6932 52.6235 22.1369 53.958 21.0381C55.3535 19.889 55.6461 18.4336 55.6461 17.4151C55.6461 13.2258 51.551 12.3467 48.1149 12.3467L48.1289 12.3455H41.1612C41.0035 12.3455 40.875 12.4736 40.875 12.628V12.6468V12.6419C40.875 12.785 40.9628 12.9131 41.1002 12.9621C41.721 13.1881 43.4066 12.8717 43.4066 14.6562V27.2731C43.4066 28.1911 42.9944 28.8391 41.1103 29.0149C40.9602 29.0287 40.8483 29.1493 40.8483 29.295V29.3389C40.8483 29.4946 40.9755 29.6202 41.1332 29.6202H48.578C48.7357 29.6202 48.8642 29.4946 48.8642 29.3389V29.3C48.8642 29.1543 48.7472 29.0313 48.597 29.0187C46.5501 28.8567 46.1392 28.2313 46.1392 27.2731V22.702L46.1418 27.2756ZM61.2806 17.13C58.0404 17.13 55.4031 20.0259 55.4031 23.5861C55.4031 27.1902 57.875 29.8061 61.2806 29.8061C64.1417 29.8061 65.5347 28.1183 66.3323 26.8499C66.4112 26.7243 66.3769 26.5586 66.2547 26.4719L66.2166 26.4456C66.0932 26.3589 65.9214 26.384 65.826 26.5021C64.7739 27.8043 63.8529 28.5578 62.2627 28.5578C60.2514 28.5578 58.1027 27.1902 58.1027 23.35V23.3224C58.0988 23.1528 58.1027 22.9205 58.109 22.7033H66.3387C66.3616 22.7033 66.3794 22.6857 66.3807 22.6631L66.3859 22.5978C66.5029 21.0243 66.0513 19.609 65.115 18.6156C64.2003 17.6437 62.8747 17.13 61.2807 17.13L61.2806 17.13ZM58.1548 21.8945C58.4258 19.2674 59.4639 17.827 61.0948 17.827C61.9103 17.827 62.5158 18.0505 62.9433 18.5102C63.531 19.1393 63.7804 20.2783 63.6824 21.8945H58.1548ZM95.3912 22.0352H95.3886C93.1382 21.4111 92.2616 20.7806 92.2616 19.7848C92.2616 18.6508 93.1738 17.827 94.4307 17.827C95.9089 17.827 96.5425 18.5252 98.1034 21.1009L98.1238 21.1348C98.1314 21.1486 98.1454 21.1561 98.1454 21.1561H98.3744C98.5322 21.1561 98.6607 21.0293 98.6607 20.8736V17.1715C98.6607 17.1489 98.6416 17.13 98.6416 17.13H98.335C98.2498 17.13 98.1684 17.1677 98.1149 17.233L97.6162 17.8308C96.9878 17.4892 95.9637 17.13 94.9358 17.13C92.3507 17.13 90.5455 18.7061 90.5455 20.964C90.5455 23.0838 91.9691 23.8774 94.4269 24.533C96.8148 25.1785 97.662 25.8503 97.662 27.0973C97.662 28.485 96.3008 29.1079 95.334 29.1079C93.5351 29.1079 92.7756 28.4486 91.0519 25.3919L91.0315 25.3555C91.0238 25.3417 91.0098 25.3329 91.0098 25.3329H90.7783C90.6206 25.3329 90.4921 25.461 90.4921 25.6155V29.7634C90.4921 29.7872 90.5111 29.8061 90.5353 29.8061H90.8279C90.903 29.8061 90.9767 29.7759 91.0302 29.7232L91.8176 28.9459C92.74 29.511 94.119 29.8061 95.0146 29.8061C96.3593 29.8061 97.4648 29.3854 98.2116 28.5905C98.8782 27.8809 99.2446 26.8763 99.2446 25.7611C99.2446 23.8297 98.2001 22.8201 95.3912 22.0352L95.3912 22.0352ZM81.7727 28.1321C81.7727 28.7713 81.6085 28.981 80.5768 29.0451C80.4267 29.0551 80.3097 29.1782 80.3097 29.3264C80.3097 29.4821 80.4382 29.6077 80.5959 29.6077H85.6884C85.8436 29.6077 85.9695 29.4833 85.9695 29.3314C85.9695 29.1807 85.8512 29.0564 85.6986 29.0501C84.5205 28.9936 84.2152 28.8052 84.2152 28.1321V20.7606C85.0536 19.3842 85.6553 18.6634 86.673 18.4461C86.6234 18.6207 86.5916 18.8279 86.5916 18.9974C86.5916 19.8928 87.2252 20.5182 88.1322 20.5182C89.0227 20.5182 89.6461 19.8928 89.6461 18.9974C89.6461 18.151 89.1105 17.1614 87.5992 17.1614C86.3614 17.1614 85.1783 17.8622 84.1618 19.5387V17.6424C84.1618 17.449 84.0002 17.2933 83.8043 17.2983L80.5959 17.3837C80.4394 17.3887 80.3186 17.5118 80.3186 17.665V17.7052C80.3186 17.8446 80.4203 17.9639 80.5565 17.9827C81.6264 18.1322 81.7739 18.6345 81.7727 19.1556V28.1321ZM116.995 17.2908C117.069 17.2908 117.14 17.3197 117.192 17.3711C117.25 17.4239 117.28 17.4942 117.281 17.5721L117.292 19.6743C117.292 19.6743 118.337 17.2079 121.729 17.2079H121.759C123.874 17.2079 125.086 18.539 125.086 20.8598V28.1208C125.086 28.76 125.252 28.9697 126.282 29.0338C126.432 29.0426 126.549 29.1656 126.549 29.3151C126.549 29.4695 126.421 29.5964 126.264 29.5964H121.688C121.53 29.5964 121.402 29.4695 121.402 29.3138C121.402 29.1631 121.518 29.04 121.663 29.0275C122.495 28.9572 122.627 28.75 122.627 28.1208V21.568C122.627 19.403 122.004 18.5616 120.405 18.5616C119.323 18.5616 118.439 19.4922 117.887 20.2733C117.887 20.2733 117.605 20.6224 117.299 21.2805L117.332 28.1195C117.332 28.7487 117.462 28.9559 118.27 29.0262C118.415 29.0388 118.529 29.1631 118.529 29.3075C118.529 29.4695 118.401 29.5964 118.244 29.5964H113.696C113.54 29.5964 113.411 29.4695 113.411 29.3138C113.411 29.1656 113.53 29.0426 113.679 29.0325C114.709 28.9685 114.873 28.76 114.873 28.1208V19.1569C114.873 18.6345 114.726 18.1296 113.651 17.979C113.515 17.9601 113.411 17.8396 113.411 17.7002V17.6587C113.411 17.5043 113.534 17.3812 113.69 17.3762L116.995 17.2908Z" fill="#3D3935"/>
<path fill-rule="evenodd" clip-rule="evenodd" d="M31.9325 29.5213C37.5441 19.2312 35.6664 9.06176 27.6021 4.52581C18.6918 -0.487342 7.07564 2.24026 2.06839 12.9773C-1.38046 20.3702 0.185581 33.2183 8.21042 37.8246C16.234 42.4284 27.0016 38.5655 31.9325 29.5213ZM29.2128 18.587C29.4863 16.5162 28.9952 13.992 27.4165 12.3281L27.3936 12.3055C24.3607 8.92362 20.1499 8.71139 17.4834 8.77669C14.5358 8.85079 12.4189 9.81147 10.6875 10.7031C9.17613 11.4804 7.81364 12.8179 7.26025 13.4822C6.90786 13.9054 6.30866 14.7794 6.63052 15.563C6.89513 16.2135 7.8887 16.1708 8.26271 15.8933C8.45966 15.7467 8.66299 15.5597 8.88661 15.3541C9.08622 15.1706 9.30199 14.9722 9.54379 14.7744C11.8197 12.9158 13.8374 11.7454 18.538 11.7454C23.2387 11.7454 25.7856 14.6388 25.7856 17.2219C25.7856 19.8051 24.549 21.5595 22.212 22.7048C21.0556 23.2711 19.8191 23.7094 18.262 23.7684C18.3752 21.2644 18.4337 18.8947 18.4337 18.8947C18.4391 18.5979 18.4521 18.3102 18.4644 18.0356C18.5271 16.6427 18.5746 15.5859 17.5534 15.3835C16.3334 15.1411 14.0854 15.3797 14.0434 16.7548C13.9887 16.5501 14.275 28.0231 14.3271 28.2491L14.3475 28.5128C14.3717 28.8042 14.476 29.0604 14.6605 29.2651C14.8449 29.4673 15.1439 29.5928 15.4123 29.623C15.4543 29.6267 15.4963 29.6305 15.5383 29.6305C15.794 29.6305 16.154 29.5853 16.5165 29.4848C16.9745 29.3555 17.4351 29.1357 17.7009 28.7929C17.8358 28.6196 17.9465 28.4513 18.0037 28.1411C18.0431 27.9302 18.1207 26.5977 18.1411 26.211C20.6129 26.1884 23.1255 25.7312 25.0375 24.5809C27.4483 23.133 28.8986 20.9479 29.2128 18.587ZM16.4224 30.9516C16.701 31.0056 16.9758 31.135 17.2213 31.3233H17.2214C17.6666 31.6649 17.9338 32.1986 17.9389 32.7449C17.9427 33.2158 17.7429 33.6365 17.3753 33.9341C17.0585 34.1853 16.6514 34.3209 16.1985 34.3209H16.1972C15.9899 34.3209 15.7825 34.2908 15.5802 34.2355C15.2291 34.1363 14.9467 33.9718 14.7622 33.7583C14.5968 33.5687 14.4862 33.3138 14.4378 33.0187C14.364 32.559 14.4798 32.0831 14.7597 31.6862C15.0955 31.2078 15.6108 30.9227 16.1349 30.9227C16.2303 30.9227 16.3283 30.9328 16.4224 30.9516Z" fill="#007FA3"/>
</svg>
