<svg width="147" height="32" viewBox="0 0 147 32" fill="none" xmlns="http://www.w3.org/2000/svg">
<g clip-path="url(#clip0_1614_21693)">
<path d="M51.6049 18.0286L50.7335 20.5036H50.6609C50.5157 19.9455 50.2494 19.0962 49.8137 18.0771L45.1423 6.30881H40.5676V25.0653H43.5932V13.4911C43.5932 12.7632 43.5932 11.9382 43.569 10.9191C43.5448 10.4095 43.4964 10.0213 43.4722 9.73011H43.5448C43.69 10.458 43.8594 10.9919 43.9805 11.3316L49.5959 25.0168H51.7259L57.2929 11.2102C57.4139 10.8948 57.535 10.2639 57.656 9.73011H57.7286C57.656 11.1132 57.6076 12.3507 57.5834 13.1029V24.9925H60.8026V6.26028H56.3974L51.6049 18.0286V18.0286ZM63.8523 11.55H66.9989V24.9925H63.8523V11.55ZM65.4498 5.87204C64.9173 5.87204 64.4817 6.06616 64.1186 6.40586C63.7555 6.74557 63.5619 7.18233 63.5619 7.71615C63.5619 8.22571 63.7555 8.66247 64.1186 9.00217C64.4817 9.34188 64.9173 9.51173 65.4498 9.51173C65.9823 9.51173 66.4422 9.31761 66.7811 9.00217C67.1441 8.66247 67.3378 8.22571 67.3378 7.71615C67.3378 7.20659 67.1441 6.76983 66.7811 6.40586C66.4664 6.06616 66.0065 5.87204 65.4498 5.87204V5.87204ZM78.1572 11.4286C77.5763 11.3073 76.9712 11.2345 76.3903 11.2345C74.9622 11.2345 73.6551 11.55 72.5659 12.1808C71.4767 12.8117 70.6054 13.6852 70.0487 14.7771C69.4678 15.8933 69.1773 17.1793 69.1773 18.6595C69.1773 19.9455 69.4678 21.0859 70.0245 22.1293C70.5812 23.1484 71.3557 23.9734 72.3965 24.5315C73.3889 25.0896 74.5507 25.3807 75.8578 25.3807C77.3584 25.3807 78.6413 25.0653 79.6579 24.483L79.6821 24.4587V21.5469L79.561 21.644C79.1012 21.9837 78.5687 22.2749 78.0362 22.4447C77.4795 22.6389 76.9712 22.7359 76.5355 22.7359C75.2769 22.7359 74.2845 22.3719 73.5825 21.5712C72.8564 20.7947 72.4933 19.7271 72.4933 18.3926C72.4933 17.0095 72.8564 15.9176 73.6067 15.1168C74.3571 14.3161 75.3495 13.9036 76.5597 13.9036C77.5763 13.9036 78.6171 14.2433 79.561 14.9227L79.6821 15.0198V11.9382L79.6579 11.9139C79.2464 11.7441 78.7865 11.55 78.1572 11.4286V11.4286ZM88.5409 11.3316C87.7664 11.3316 87.0402 11.5742 86.4109 12.0838C85.8784 12.5205 85.5153 13.1514 85.2007 13.9036H85.1765V11.55H82.0299V24.9925H85.1765V18.1256C85.1765 16.9609 85.4185 15.9904 85.951 15.2867C86.4835 14.5588 87.1613 14.1948 87.9842 14.1948C88.2747 14.1948 88.5651 14.2676 88.9282 14.3161C89.267 14.4132 89.5091 14.5102 89.6785 14.6315L89.7995 14.7286V11.5742L89.7269 11.55C89.5091 11.4044 89.0734 11.3316 88.5409 11.3316V11.3316ZM97.1093 11.2588C94.9067 11.2588 93.1398 11.9139 91.9053 13.1999C90.6467 14.486 90.0416 16.2573 90.0416 18.4896C90.0416 20.5764 90.6709 22.2749 91.8811 23.5124C93.0913 24.7256 94.7373 25.3565 96.7946 25.3565C98.9488 25.3565 100.667 24.7013 101.902 23.3911C103.16 22.0808 103.766 20.3337 103.766 18.1742C103.766 16.0389 103.185 14.3404 101.999 13.1029C100.861 11.8654 99.1909 11.2588 97.1093 11.2588V11.2588ZM99.6266 21.5955C99.0457 22.3477 98.1259 22.7116 96.9883 22.7116C95.8507 22.7116 94.9309 22.3477 94.2774 21.5469C93.6238 20.7947 93.3092 19.7028 93.3092 18.3198C93.3092 16.8882 93.6481 15.7962 94.2774 15.0198C94.9309 14.2433 95.8265 13.8551 96.9641 13.8551C98.0775 13.8551 98.9488 14.2191 99.5781 14.9713C100.207 15.7235 100.546 16.8154 100.546 18.247C100.498 19.7028 100.232 20.8433 99.6266 21.5955V21.5955ZM110.785 17.1308C109.792 16.7183 109.163 16.4029 108.873 16.136C108.631 15.8933 108.51 15.5536 108.51 15.1168C108.51 14.7529 108.655 14.3889 109.018 14.1463C109.381 13.9036 109.792 13.7823 110.398 13.7823C110.93 13.7823 111.487 13.8793 112.019 14.0249C112.552 14.1705 113.036 14.3889 113.423 14.6801L113.544 14.7771V11.8169L113.472 11.7926C113.108 11.647 112.624 11.5014 112.043 11.3801C111.463 11.283 110.93 11.2345 110.494 11.2345C108.994 11.2345 107.759 11.5985 106.791 12.3992C105.823 13.1514 105.363 14.1705 105.363 15.3595C105.363 15.9904 105.46 16.5484 105.678 17.0095C105.896 17.4705 106.21 17.9073 106.646 18.2712C107.082 18.6109 107.711 18.9992 108.582 19.3631C109.308 19.6786 109.865 19.9212 110.204 20.1153C110.543 20.3095 110.761 20.5278 110.93 20.6977C111.051 20.8918 111.124 21.1345 111.124 21.4499C111.124 22.3477 110.446 22.7844 109.066 22.7844C108.534 22.7844 107.977 22.6874 107.324 22.469C106.67 22.2506 106.065 21.9352 105.557 21.5712L105.436 21.4742V24.5558L105.508 24.58C105.968 24.7984 106.525 24.944 107.203 25.1138C107.88 25.2352 108.485 25.3322 109.018 25.3322C110.64 25.3322 111.971 24.9683 112.915 24.1675C113.883 23.3911 114.391 22.3962 114.391 21.1102C114.391 20.2124 114.149 19.4117 113.617 18.8051C112.915 18.2227 112.043 17.6161 110.785 17.1308V17.1308ZM122.693 11.2588C120.491 11.2588 118.724 11.9139 117.489 13.1999C116.255 14.486 115.626 16.2573 115.626 18.4896C115.626 20.5764 116.255 22.2749 117.465 23.5124C118.675 24.7256 120.321 25.3565 122.379 25.3565C124.533 25.3565 126.251 24.7013 127.486 23.3911C128.745 22.0808 129.35 20.3337 129.35 18.1742C129.35 16.0389 128.769 14.3404 127.583 13.1029C126.445 11.8654 124.775 11.2588 122.693 11.2588V11.2588ZM125.186 21.5955C124.606 22.3477 123.686 22.7116 122.548 22.7116C121.386 22.7116 120.491 22.3477 119.837 21.5469C119.184 20.7947 118.869 19.7028 118.869 18.3198C118.869 16.8882 119.208 15.7962 119.837 15.0198C120.491 14.2433 121.386 13.8551 122.524 13.8551C123.613 13.8551 124.509 14.2191 125.138 14.9713C125.767 15.7235 126.106 16.8154 126.106 18.247C126.106 19.7028 125.792 20.8433 125.186 21.5955V21.5955ZM146.172 14.1463V11.55H143.001V7.57056L142.904 7.59483L139.903 8.49262L139.83 8.51688V11.55H135.086V9.85143C135.086 9.07497 135.28 8.46835 135.619 8.08012C135.957 7.69189 136.466 7.49777 137.095 7.49777C137.531 7.49777 137.991 7.59483 138.499 7.81321L138.62 7.886V5.14411L138.547 5.11984C138.112 4.97426 137.531 4.8772 136.78 4.8772C135.836 4.8772 135.014 5.09558 134.263 5.45955C133.513 5.87204 132.956 6.43013 132.545 7.18233C132.133 7.91027 131.915 8.73526 131.915 9.68158V11.55H129.713V14.122H131.915V24.9925H135.086V14.1463H139.83V21.0617C139.83 23.9006 141.161 25.3322 143.824 25.3322C144.26 25.3322 144.72 25.2594 145.155 25.1866C145.615 25.0896 145.954 24.9683 146.148 24.8712L146.172 24.8469V22.2506L146.051 22.3477C145.857 22.469 145.688 22.5661 145.397 22.6389C145.155 22.7116 144.937 22.7359 144.768 22.7359C144.139 22.7359 143.703 22.5903 143.388 22.2264C143.098 21.8867 142.953 21.3286 142.953 20.5036V14.1463H146.172V14.1463Z" fill="#737373"/>
<path d="M0 0H14.8373V14.8742H0V0Z" fill="#F25022"/>
<path d="M16.3855 0H31.2228V14.8742H16.3855V0Z" fill="#7FBA00"/>
<path d="M-0.000244141 16.4268H14.8371V31.3009H-0.000244141V16.4268Z" fill="#00A4EF"/>
<path d="M16.3855 16.4268H31.2228V31.3009H16.3855V16.4268Z" fill="#FFB900"/>
</g>
<defs>
<clipPath id="clip0_1614_21693">
<rect width="146.195" height="31.3013" fill="white"/>
</clipPath>
</defs>
</svg>
