<svg width="187" height="25" viewBox="0 0 187 25" fill="none" xmlns="http://www.w3.org/2000/svg">
<g clip-path="url(#clip0_1614_21688)">
<mask id="mask0_1614_21688" style="mask-type:alpha" maskUnits="userSpaceOnUse" x="0" y="0" width="187" height="25">
<path d="M0 0H186.229V24.5568H0V0Z" fill="white"/>
</mask>
<g mask="url(#mask0_1614_21688)">
<path fill-rule="evenodd" clip-rule="evenodd" d="M162.967 14.5484H182.778L185.509 10.2618H162.967C163.893 6.94563 166.907 4.53318 170.479 4.53318H184.082L186.799 0.235745H170.166C163.515 0.235745 158.119 5.68145 158.119 12.4061C158.119 19.1228 163.515 24.5577 170.166 24.5577H184.475L187.194 20.277H170.479C166.907 20.277 163.896 17.8567 162.967 14.5484ZM128.092 24.5568L130.801 20.277H114.102C109.774 20.277 106.287 16.7438 106.287 12.4051C106.287 8.04676 109.774 4.53318 114.102 4.53318H127.693L130.433 0.234763H113.784C107.12 0.234763 101.708 5.68047 101.708 12.4051C101.708 19.1219 107.12 24.5568 113.784 24.5568H128.091H128.092ZM12.3693 20.277C8.0619 20.277 4.57082 16.7438 4.57082 12.4051C4.57082 8.04676 8.0619 4.53318 12.3683 4.53318H25.7537C30.0756 4.53318 33.5628 8.04676 33.5628 12.4051C33.5628 16.7438 30.0756 20.277 25.7537 20.277H12.3683H12.3693ZM26.074 24.5568C32.7397 24.5568 38.1085 19.1219 38.1085 12.4051C38.1085 5.68047 32.7397 0.234763 26.074 0.234763H12.0605C5.40065 0.234763 0 5.68047 0 12.4051C0 19.1219 5.40065 24.5568 12.0615 24.5568H26.075H26.074ZM69.0081 8.45734C69.0081 3.91631 65.3771 0.234763 60.8642 0.234763H40.5806V24.5568H45.218V4.53318H60.5583C62.7101 4.53318 64.4547 6.28653 64.4547 8.45636C64.4547 10.6213 62.7091 12.4051 60.5583 12.4051L47.4846 12.3933L61.3303 24.5568H68.0558L58.7568 16.6809H60.8652C65.3771 16.6809 69.0081 12.9954 69.0081 8.45636V8.45734ZM137.556 0.234763H132.911V22.2288C132.911 22.8289 133.162 23.4163 133.596 23.8417C134.04 24.3023 134.648 24.5558 135.287 24.5558H156.407L159.159 20.2603H137.555V0.235745L137.556 0.234763ZM93.1794 15.9815L86.6469 5.34551L74.6529 24.5568H69.1741L83.7753 1.49993C84.3986 0.56677 85.4697 0 86.6401 0C87.7835 0 88.8353 0.547124 89.4577 1.45965L104.105 24.5568H98.6408L96.0664 20.2613H83.5427L80.812 15.9815H93.1794V15.9815Z" fill="#C74634"/>
</g>
</g>
<defs>
<clipPath id="clip0_1614_21688">
<rect width="186.229" height="24.5568" fill="white"/>
</clipPath>
</defs>
</svg>
